<?xml version="1.0" encoding="utf-8"?>
<!-- Generator: Adobe Illustrator 22.0.0, SVG Export Plug-In . SVG Version: 6.00 Build 0)  -->
<svg version="1.1" id="图层_1" xmlns="http://www.w3.org/2000/svg" xmlns:xlink="http://www.w3.org/1999/xlink" x="0px" y="0px"
	 viewBox="0 0 100 100" style="enable-background:new 0 0 100 100;" xml:space="preserve">
<style type="text/css">
	.st0{fill:#B89056;}
	.st1{fill:#333333;}
</style>
<path class="st0" d="M58,67.5c-1.4,0-2.3-0.9-2.3-2.3V44.4c0-1.4,0.9-2.3,2.3-2.3c1.4,0,2.3,0.9,2.3,2.3v20.7
	C59.8,66.5,58.9,67.5,58,67.5z"/>
<path class="st0" d="M68.1,51.8H47.4c-1.4,0-2.3-0.9-2.3-2.3c0-1.4,0.9-2.3,2.3-2.3h20.7c1.4,0,2.3,0.9,2.3,2.3
	C70.4,50.9,69.5,51.8,68.1,51.8z M68.1,60.1H47.4c-1.4,0-2.3-0.9-2.3-2.3c0-1.4,0.9-2.3,2.3-2.3h20.7c1.4,0,2.3,0.9,2.3,2.3
	C70.4,59.2,69.5,60.1,68.1,60.1z M58,46.7c-0.5,0-1.4,0-1.8-0.5l-9.7-9.7c-0.9-0.9-0.9-2.3,0-3.2c0.9-0.9,2.3-0.9,3.2,0l9.7,9.7
	c0.9,0.9,0.9,2.3,0,3.2C58.9,46.7,58.4,46.7,58,46.7z"/>
<path class="st1" d="M35,62.7h-3.6V52.5h4.2v10.2 M31.4,37.5h4.2v10.2h-4.2V37.5z"/>
<path class="st1" d="M92,40.5V27.3c0-3.6-3-6.6-6.6-6.6H14.6c-3.6,0-6.6,3-6.6,6.6v13.2c2.4,0.6,4.8,2.4,6.6,4.2
	c1.2,1.8,1.8,3.6,1.8,5.4c0,1.8-1.2,4.2-1.8,5.4c-1.8,2.4-4.2,3.6-6.6,4.2v13.2c0,3.6,3,6.6,6.6,6.6h70.8c3.6,0,6.6-3,6.6-6.6V59.7
	c-2.4-0.6-4.8-2.4-6-5.4c-0.6-1.2-1.8-3-1.8-4.8c0-1.8,1.2-3.6,1.8-4.8C87.2,42.9,89.6,41.1,92,40.5L92,40.5z M88.4,63.3v12H35.6v-6
	h-4.2v6H12.2V63.9c4.8-3,8.4-7.8,8.4-13.8S17,39.3,12.2,36.3V24.9h19.2v6h4.2v-6h52.2v12c-4.8,3-8.4,7.2-8.4,13.2S83,60.3,88.4,63.3
	L88.4,63.3z"/>
<path class="st0" d="M58.2,46.7c-0.5,0-1.4,0-1.8-0.5c-0.9-0.9-0.9-2.3,0-3.2l9.7-9.7c0.9-0.9,2.3-0.9,3.2,0s0.9,2.3,0,3.2l-9.7,9.7
	C59.1,46.7,58.6,46.7,58.2,46.7L58.2,46.7z"/>
</svg>
