<?xml version="1.0" encoding="utf-8"?>
<!-- Generator: Adobe Illustrator 22.0.0, SVG Export Plug-In . SVG Version: 6.00 Build 0)  -->
<svg version="1.1" id="图层_1" xmlns="http://www.w3.org/2000/svg" xmlns:xlink="http://www.w3.org/1999/xlink" x="0px" y="0px"
	 viewBox="0 0 100 100" style="enable-background:new 0 0 100 100;" xml:space="preserve">
<style type="text/css">
	.st0{fill:#333333;}
	.st1{fill:#FD9523;}
</style>
<path class="st0" d="M35.9,14.2H14.2c-2.3,0-4.2,1.9-4.2,4.2v75.8c0,2.3,1.9,4.2,4.2,4.2h71.7c2.3,0,4.2-1.9,4.2-4.2V18.4
	c0-2.3-1.9-4.2-4.2-4.2H64.5v4.2h21.3v75.8H14.2V18.4h21.7V14.2z"/>
<path class="st0" d="M50,26.9c5.9,0,10.6-4.6,10.6-10.6S55.9,5.7,50,5.7s-10.6,4.6-10.6,10.6S44.1,26.9,50,26.9z M50,31
	c-8.2,0-14.7-6.5-14.7-14.7S41.8,1.6,50,1.6s14.7,6.5,14.7,14.7S58.2,31,50,31z M56.3,39.4h19v4.2h-19V39.4z M24.7,77.4h50.6v4.2
	H24.7V77.4z"/>
<path class="st1" d="M45.6,39.4H26.4c-1.1,0-1.9,0.9-1.9,1.9v19.3c0,1.1,0.9,1.9,1.9,1.9h19.3c1.1,0,1.9-0.9,1.9-1.9V41.4
	C47.6,40.3,46.7,39.4,45.6,39.4z M43.3,58.3H28.7V43.7h14.6V58.3z"/>
<rect x="56" y="58.4" class="st1" width="19" height="4.3"/>
</svg>
