<?xml version="1.0" encoding="utf-8"?>
<!-- Generator: Adobe Illustrator 22.0.0, SVG Export Plug-In . SVG Version: 6.00 Build 0)  -->
<svg version="1.1" id="图层_1" xmlns="http://www.w3.org/2000/svg" xmlns:xlink="http://www.w3.org/1999/xlink" x="0px" y="0px"
	 viewBox="0 0 64 64" style="enable-background:new 0 0 64 64;" xml:space="preserve">
<style type="text/css">
	.st0{fill:#666666;}
	.st1{fill:#FF8C49;}
</style>
<path class="st0" d="M22.8,52.4c-0.1-1.1,0.3-2.1,1.1-2.9s1.7-1.3,2.8-1.3h0.3c2.1,0,4,1.7,4,4c0.1,2.2-1.7,4-4,4.2
	C24.7,56.4,22.8,54.6,22.8,52.4z M61.6,38.9l-28.3,9.4c-1.4-2.1-3.7-3.6-6.5-3.6h-0.8L14.9,11.1c-0.1-0.4-0.4-0.8-0.8-1.1L2.6,4.4
	C1.7,3.9,0.6,4.2,0.2,5.1S0.1,7,1,7.4l10.8,5.3l11,33.1c-0.5,0.4-1.1,0.8-1.5,1.3c-1.4,1.5-2,3.5-2,5.4c0.2,4,3.5,7.2,7.6,7.2h0.3
	c4.3-0.2,7.5-3.7,7.2-7.9v-0.3l28.4-9.3c1-0.3,1.4-1.4,1.2-2.2C63.6,39.1,62.6,38.6,61.6,38.9z"/>
<path class="st1" d="M60.8,32.8l-9-27C51.7,5.4,51.4,5,51,4.7c-0.4-0.2-0.8-0.2-1.4-0.1L36,9.2l-13.6,4.5c-1,0.3-1.4,1.3-1.2,2.2
	l9,27c0.2,0.8,1,1.2,1.7,1.2c0.2,0,0.4,0,0.5-0.1l27.3-9.1c0.4-0.1,0.8-0.4,1.1-0.8C60.9,33.8,61,33.2,60.8,32.8z M32.8,40.2
	L25,16.6l10.4-3.4l2.1,6.5c0.2,0.8,1,1.2,1.7,1.2c0.2,0,0.4,0,0.5-0.1c1-0.3,1.4-1.3,1.2-2.2L38.7,12l10.4-3.3L57,32.3
	C56.8,32.4,32.8,40.2,32.8,40.2z"/>
</svg>
