<?xml version="1.0" encoding="utf-8"?>
<!-- Generator: Adobe Illustrator 22.0.0, SVG Export Plug-In . SVG Version: 6.00 Build 0)  -->
<svg version="1.1" id="图层_1" xmlns="http://www.w3.org/2000/svg" xmlns:xlink="http://www.w3.org/1999/xlink" x="0px" y="0px"
	 viewBox="0 0 494 339.5" style="enable-background:new 0 0 494 339.5;" xml:space="preserve">
<style type="text/css">
	.st0{enable-background:new    ;}
	.st1{fill:#FFFFFF;}
	.st2{fill:none;stroke:#FFFFFF;stroke-miterlimit:10;stroke-dasharray:2.005,2.005;}
	.st3{fill:none;stroke:#FFFFFF;stroke-miterlimit:10;}
	.st4{fill:none;stroke:#FFFFFF;stroke-miterlimit:10;stroke-dasharray:2.0081,2.0081;}
	.st5{fill:#FCF7F7;}
</style>
<g class="st0">
	<path class="st1" d="M195.8,211.5c-0.2,0.2-0.4,0.5-0.7,0.9l0.2,0.2c0.1,0.1,0.3,0.2,0.7,0.4l0.4-0.2c0.3-0.2,0.6-0.3,0.8-0.3
		c0.3-0.1,0.5-0.1,0.8-0.1s0.8,0.1,1.5,0.4l0.2-0.1c0.1-0.1,0.4-0.2,0.8-0.2c0.4-0.1,0.7-0.1,0.8-0.1s0.3-0.1,0.6-0.3
		c0.3-0.3,0.5-0.4,0.7-0.4c0.2-0.1,0.3-0.1,0.3-0.1c0.1-0.1,0.2,0,0.4,0.2c0.3,0.1,0.5,0.2,0.8,0.3c0.3,0,0.5,0,0.7,0
		c0.2-0.1,0.4-0.2,0.8-0.2c0.4-0.1,0.4-0.2,0.2-0.1c0.3-0.1,0.6-0.1,0.9-0.1c0.4-0.1,0.8-0.2,1.3-0.3l0.3,0.2
		c0.2,0.1,0.4,0.2,0.6,0.4c0.1,0.1,0.2,0.1,0.3,0.2c0.1,0.1,0.2,0.2,0.3,0.3c0.3,0.3,0.6,0.5,0.8,0.7l0.1,0.4
		c0.1,0.2,0.1,0.3,0.1,0.5c0.1-0.1,0,0.1-0.2,0.5l-0.3,0.1c-0.1,0-0.1,0-0.3,0c-0.1,0.1-0.2,0.1-0.3,0.1s-0.1,0-0.3,0
		c-0.1-0.1-0.2-0.1-0.3-0.1c-0.2-0.1-0.4-0.1-0.7,0c-0.1,0-0.2,0-0.3,0.1c-0.1,0-0.1,0-0.2,0l-0.5-0.4l-0.3,0.4l-0.2-0.1
		c-0.1-0.1-0.2-0.2-0.5-0.3l-0.2,0.4l-0.1-0.2c-0.1-0.2-0.1-0.3-0.1-0.4h0.2h0.2c0.1-0.1,0.2-0.1,0.3-0.1c0.1-0.1,0.3-0.2,0.5-0.3
		c0.1-0.1,0.1-0.1,0.2-0.2c0.2-0.2,0.4-0.5,0.5-0.9h-0.3c-0.2,0-0.4,0-0.7,0.1c-0.3,0-0.6,0.1-0.8,0.2c-0.3,0-0.5,0.1-0.6,0.3
		c-0.1,0.1-0.1,0.1-0.3,0.2c-0.1,0.1-0.2,0.1-0.3,0.2c-0.1,0-0.1,0-0.3,0.1c-0.1,0.1-0.1,0.1-0.2,0.1H204c-0.1-0.1-0.2-0.1-0.3-0.1
		c-0.2-0.1-0.3-0.2-0.4-0.3c-0.1-0.2-0.3-0.3-0.4-0.4c-0.2-0.2-0.4-0.3-0.6-0.4l-0.2,0.1c-0.1,0-0.2,0.1-0.5,0.3
		c-0.1,0.1-0.3,0.2-0.5,0.3c-0.1,0.1-0.1,0.1-0.2,0.2c-0.2,0.2-0.4,0.3-0.7,0.4c-0.2-0.1-0.4,0.1-0.8,0.5h-0.2l-0.3-0.3
		c-0.1-0.1-0.1-0.1-0.2-0.2c-0.1-0.1-0.3-0.2-0.4-0.2c-0.2-0.1-0.4-0.2-0.6-0.5h-0.3l-0.5,0.6c-0.3,0.4-0.6,0.7-0.7,0.9
		c-0.1,0.2-0.2,0.4-0.5,0.6c-0.1,0-0.1,0-0.3,0.1c-0.1,0.1-0.2,0.1-0.3,0.1l-0.2-0.2c0-0.1-0.1-0.2-0.2-0.3
		c-0.1-0.1-0.2-0.1-0.2-0.2c0-0.1-0.1-0.2-0.2-0.3c-0.1-0.1-0.2-0.2-0.2-0.3c-0.1-0.2-0.1-0.3-0.3-0.5c-0.1-0.1-0.1-0.2-0.1-0.3
		s0-0.1-0.1-0.2c-0.1-0.2-0.1-0.4-0.1-0.7l0.3-0.3c0.2-0.3,0.5-0.5,0.8-0.7h0.1c0.1,0,0.1,0,0.2-0.1c0.2-0.1,0.4-0.2,0.6-0.3
		L195.8,211.5z M200.1,197c0.1,0,0.1,0,0.2,0.1c0.1,0,0.2,0.1,0.5,0.3c0.1,0,0.1,0,0.3,0.1c0.1,0.1,0.2,0.1,0.3,0.1s0.2,0,0.3,0.1
		c0.1,0,0.3,0.1,0.6,0.2c-0.1,0-0.1,0,0.2,0.1l0.2,0.3c0,0.1,0.1,0.2,0.2,0.3c0.1,0.2,0.2,0.4,0.3,0.6l0.3-0.1
		c0.2-0.1,0.3-0.2,0.2-0.1c0.1-0.1,0.3-0.1,0.4-0.1c0.1-0.1,0.3-0.2,0.6-0.3c-0.1,0.1,0.1,0,0.5-0.2l0.3,0.1c0.1,0,0.2,0,0.4,0.1
		c-0.1-0.1-0.1,0,0.2,0.1c0.1,0,0.2,0,0.3,0c0.2,0.1,0.3,0.1,0.5,0.1l0.7,0.8v0.4l-0.2,0.2c-0.1,0.1-0.2,0.2-0.5,0.3
		c-0.2,0-0.5,0.1-0.8,0.3c-0.3,0.1-0.7,0.2-1.1,0.4c-0.1,0-0.3,0-0.5,0.1c-0.4,0.1-0.8,0.2-1.1,0.3v0.2c0,0.1,0,0.3-0.1,0.7
		c-0.1,0.1-0.1,0.3-0.1,0.4c0,0.2,0,0.3-0.1,0.5c-0.1,0.1-0.1,0.2-0.1,0.3s0,0.2-0.1,0.3s-0.1,0.2-0.1,0.3l0.3-0.2
		c0.3-0.1,0.5-0.2,0.8-0.2c0.2-0.1,0.4-0.1,0.6-0.1l0.3,0.2c0.2,0.1,0.4,0.2,0.6,0.4c0.2,0.1,0.4,0.2,0.6,0.4
		c0.1,0.1,0.2,0.1,0.3,0.2c0.1,0.1,0.2,0.2,0.3,0.3c0.2,0.2,0.4,0.4,0.4,0.6c0.1,0.1,0.1,0.3,0.1,0.5c0,0.1-0.1,0.3-0.2,0.6
		l-0.4,0.3c-0.3,0.2-0.5,0.4-0.7,0.6c-0.2,0.2-0.3,0.4-0.3,0.6c-0.1,0.1-0.1,0.1-0.1,0.2c0,0.1,0,0.2-0.1,0.3
		c-0.1,0-0.1,0.2-0.1,0.6l0.2,0.2v0.4l-0.5,0.4h-0.3l-0.3-0.4h-0.2c-0.1,0-0.2,0-0.3,0.1c-0.1,0-0.3,0.1-0.6,0.3
		c-0.3,0.1-0.6,0.3-0.8,0.5s-0.7,0.3-1.4,0.3l-0.5,0.4H200l-0.7-0.6h-0.1c-0.1,0-0.2,0-0.4,0.1c-0.1-0.1-0.6,0.1-1.7,0.4
		c0.1,0-0.1,0-0.3,0.1l0.7-0.3c0.5-0.3,1.1-0.5,1.7-0.7l-0.3-0.8c-0.1-0.3-0.2-0.7-0.3-1.1c0,0.2,0,0.1-0.1-0.3c0-0.1,0-0.3-0.1-0.6
		c0-0.3,0-0.4-0.1-0.6c-0.1-0.4-0.1-0.6-0.3-0.8c-0.1-0.2-0.1-0.3-0.1-0.2c-0.1-0.1-0.1-0.3-0.3-0.7l-0.2-0.7c0-0.1,0.1-0.2,0.2-0.5
		l0.3-0.2l0.2,0.3c0,0.1,0.1,0.2,0.2,0.3c0.1,0.1,0.2,0.2,0.2,0.3c0.1,0.1,0.1,0.2,0.3,0.3l0.1,0.1c0.1-0.1,0.3,0.1,0.8,0.5l1-0.6
		l-0.1-0.5c-0.1-0.4-0.1-0.6-0.1-0.7c0-0.2,0-0.4,0.1-0.7c0-0.1,0-0.2,0.1-0.3c0-0.2,0-0.3,0.1-0.4c0.1-0.1,0.1-0.2,0.1-0.3
		s0-0.2,0.1-0.3l0.1-0.5c0-0.1,0-0.3-0.1-0.6s-0.1-0.7-0.1-1.2l-0.3-0.3c-0.2-0.2-0.3-0.4-0.3-0.6c-0.1-0.2-0.1-0.4-0.3-0.6
		c-0.1-0.2-0.1-0.4-0.3-0.6c-0.1-0.1-0.1-0.4-0.1-0.9L200.1,197z M203.6,205.8c-0.1,0-0.2,0-0.5,0.1c0.2-0.1,0.1,0-0.3,0.1
		c-0.3,0-0.7,0.1-1,0.4c-0.2,0.1-0.7,0.4-1.5,0.9l-0.2,0.6l0.1,0.2c0.1,0.1,0.1,0.2,0.1,0.3c0.1,0.2,0.1,0.3,0.2,0.5l0.3-0.2
		c0.2-0.2,0.4-0.3,0.8-0.3c0.4-0.1,0.8-0.2,1-0.4c0.3-0.2,0.5-0.4,0.7-0.8c0-0.1,0-0.2,0.1-0.3c0.2-0.3,0.4-0.7,0.5-1.1H203.6z"/>
	<path class="st1" d="M226.4,201.2c0.2-0.1,0.3-0.2,0.5-0.2l0.3,0.2c0.2,0.1,0.3,0.2,0.4,0.4c0.1,0.1,0.2,0.3,0.3,0.5
		c0,0.1,0,0.1,0.1,0.2c0.1,0.2,0.2,0.3,0.3,0.5s0.2,0.4,0.2,0.6l-0.3,0.3c-0.1,0.1-0.1,0.2-0.3,0.3s-0.3,0.3-0.4,0.4
		c-0.1,0.1-0.2,0.2-0.3,0.3c-0.2,0.2-0.3,0.3-0.4,0.4c-0.2,0.1-0.3,0.2-0.2,0.1c-0.1,0.1-0.3,0.2-0.4,0.4c-0.2,0.1-0.3,0.2-0.3,0.4
		c-0.1,0.1-0.1,0.2-0.3,0.4c0.1-0.2,0.1-0.1-0.2,0.4l0.2,0.4l0.4-0.1c0.3-0.1,0.5-0.2,0.8-0.3l0.2,0.2l0.2-0.1
		c0.1-0.1,0.4-0.2,1-0.2c0.1,0,0.3,0,0.5-0.1c0.3-0.1,0.5-0.1,0.8-0.1c0.3-0.1,0.9-0.2,1.8-0.3l0.2,0.1c0.1,0,0.3,0.1,0.4,0.3
		c0.2,0.1,0.3,0.3,0.4,0.5c0.1,0.2,0.2,0.4,0.3,0.7c0.1,0.1,0.1,0.4,0.1,0.8l-0.2,0.1h-0.1c-0.1,0.1-0.1,0.1-0.2,0.1h-0.1
		c-0.2-0.1-0.3-0.1-0.4-0.1c-0.3-0.1-1-0.2-2.1-0.2c-1.1-0.1-1.9-0.1-2.4,0c-0.4,0-0.7,0.1-1,0.2c-0.2,0-0.4,0.1-0.7,0.3l-0.1,0.2
		c-0.1,0-0.1,0.3-0.1,0.9l0.2,0.2l-0.1,0.3c-0.1,0.1-0.1,0.7-0.2,1.6c0,0.4,0,0.8,0,1l0.5-0.1c0.4,0,0.8,0,1.1,0.1
		c0.4,0,0.7,0,1-0.1l0.2-0.4l-0.2-0.2c-0.1-0.1-0.1-0.2-0.1-0.3c-0.1-0.1-0.1-0.1-0.2-0.2c-0.1-0.2-0.1-0.4-0.3-0.8
		c-0.1-0.2-0.2-0.4-0.3-0.7c-0.1-0.2-0.1-0.3-0.2-0.4l0.2-0.4l0.4,0.3c0.3,0.2,0.5,0.3,0.6,0.3c0.1-0.1,0.3,0,0.5,0.2
		c0.2,0.1,0.4,0.3,0.6,0.6c0.2,0.2,0.3,0.4,0.4,0.8c0.1,0.1,0.1,0.2,0.2,0.3c0,0.2,0,0.3,0.1,0.4c0.1,0.1,0.1,0.2,0.1,0.5
		c0.1,0.2,0.1,0.3,0.1,0.5c0,0.1,0,0.3,0.1,0.4c0,0.3,0,0.4,0.1,0.5s0.1,0.2,0.1,0.3l-0.1,0.3c-0.1,0.1-0.1,0.1-0.1,0.2
		c-0.1,0.1-0.1,0.2-0.1,0.3c-0.1,0.1-0.1,0.2-0.1,0.4l-0.1,0.2c0,0.1,0,0.2-0.1,0.4c0,0.2,0,0.3-0.1,0.4c-0.1,0.3-0.3,0.5-0.4,0.9
		h-0.2l-0.3-0.5c-0.2-0.3-0.3-0.6-0.4-0.9c-0.1-0.2-0.2-0.5-0.3-1l0.2-0.4l-0.5-0.1c-0.3-0.1-0.6-0.2-0.8-0.3l-0.2,0.2l-1.2-0.2
		l-0.2,0.4h-0.3v0.2c-0.1,0.1-0.1,0.1-0.1,0.2c-0.1,0.1-0.1,0.3-0.2,0.4h-0.2l-0.3-0.6l-0.3,0.3c-0.1,0.1-0.2,0.1-0.3,0.2
		c-0.1,0.1-0.2,0.2-0.3,0.3c-0.2,0.1-0.5,0.2-0.8,0.5c-0.1,0.1-0.3,0.2-0.4,0.4c-0.2,0.2-0.3,0.3-0.4,0.4c-0.2,0.2-0.4,0.3-0.6,0.4
		c-0.2,0.1-0.4,0.1-0.6,0.1l-0.3-0.3c-0.1-0.1-0.1-0.2-0.3-0.3l-0.1-0.2c-0.1-0.1-0.1-0.2-0.1-0.3c-0.1-0.2-0.1-0.3-0.1-0.4
		l-0.1-0.3c0-0.2,0-0.3-0.1-0.4l-0.1-0.5c0-0.1,0-0.2,0.1-0.3s0.1-0.2,0.1-0.4c0.1-0.1,0.1-0.2,0.1-0.3c0.1-0.1,0.1-0.3,0.1-0.6
		s0-0.4,0.1-0.6c0-0.1,0-0.3,0.1-0.6c0.1-0.4,0.1-0.9,0.2-1.2l-0.2,0.1c-0.1,0-0.2,0.1-0.5,0.3c-0.1,0.1-0.3,0.2-0.5,0.3
		c-0.1,0.1-0.1,0.1-0.2,0.2c-0.3,0.3-0.6,0.5-0.8,0.7H217l-0.3,0.4l-0.2-0.1c-0.1-0.1-0.2-0.2-0.3-0.3c0.2,0.1,0.1,0.1-0.3-0.2
		l-0.1-0.4c-0.1-0.2-0.1-0.6-0.1-1.1l0.5-0.8l0.3,0.4l0.3-0.2c0.2-0.2,0.4-0.3,0.7-0.3c0.3-0.1,0.5-0.2,0.8-0.3
		c0.3-0.2,0.5-0.3,0.8-0.4c0.1-0.1,0.3-0.2,0.5-0.3c0.1-0.1,0.1-0.1,0.2-0.1c0.2-0.2,0.4-0.3,0.8-0.4c0.1-0.1,0.2-0.1,0.3-0.2
		c0.1-0.1,0.3-0.2,0.5-0.3c0.1-0.1,0.1-0.1,0.2-0.2c0.1-0.1,0.3-0.2,0.4-0.2c0.2-0.1,0.3-0.2,0.5-0.4c0.2-0.3,0.6-0.7,1.1-1v-0.2
		l0.3-0.2l0.2-0.4l-0.7,0.2l-0.3-0.3c-0.2-0.2-0.4-0.4-0.6-0.6c-0.2-0.2-0.3-0.4-0.4-0.6c-0.1-0.2-0.1-0.3-0.1-0.2
		c-0.1-0.1-0.1-0.3-0.3-0.7c-0.1-0.4-0.1-0.7-0.3-0.9c-0.1-0.2-0.1-0.4-0.1-0.7l0.3-0.1c0.2-0.1,0.3-0.1,0.4-0.1l-0.3,0.4l0.3,0.2
		c0.3,0.1,0.7,0.3,1.2,0.4l0.3-0.2c0.1-0.2,0.4-0.3,0.8-0.4l0.1-0.9c0-0.2,0-0.5,0.1-0.9c0-0.4,0-0.8,0.1-0.9c0.1-0.5,0.1-1.2-0.1-2
		l-0.3,0.4c-0.1,0.1-0.3,0.6-0.4,1.3l-0.1-0.4c-0.1-0.1-0.1-0.3-0.1-0.6c-0.1-0.4-0.1-0.8-0.2-1.1l0.3-0.3c0.2-0.3,0.4-0.4,0.6-0.4
		c0.2-0.1,0.4-0.1,0.4-0.1c0.1,0,0.2,0,0.3,0.1c0.1,0,0.1,0.1,0.3,0.2c0.1,0.1,0.2,0.1,0.3,0.2c0.2,0.2,0.4,0.4,0.6,0.6
		c0.2,0.2,0.3,0.4,0.3,0.6c0.1,0.1,0.1,0.2,0.1,0.4c0.1,0.2,0.1,0.3,0.1,0.5c0.1,0.4,0.1,0.6,0.1,0.7l-0.1,0.5
		c-0.1,0.1-0.1,0.3-0.1,0.8c-0.1,0.4-0.1,0.8-0.2,1.1L226.4,201.2z M223.7,208.8l-0.4,0.2c-0.2,0.1-0.5,0.2-0.8,0.4
		c-0.2,0.1-0.4,0.2-0.6,0.3c-0.2,0-0.3,0.1-0.5,0.3c-0.1,0.1-0.3,0.2-0.7,0.4l0.2,0.5c0.1,0.1,0.1,0.3,0.1,0.6
		c0.1,0.3,0.1,0.4,0.1,0.6c0.1,0.4,0.1,0.6,0.1,0.8c0,0.3-0.1,0.7-0.2,1.4l0.4-0.1c0.3-0.1,0.6-0.3,1.1-0.5l0.2,0.2l0.1-0.2
		c0-0.1,0.2-0.3,0.6-0.8l-0.2-0.2c0-0.1-0.1-0.2-0.2-0.3c-0.1-0.1-0.2-0.1-0.2-0.2c-0.1-0.2-0.2-0.4-0.5-0.6
		c-0.2-0.1-0.4-0.5-0.8-1.2l0.4,0.4c0.3,0.2,0.5,0.3,0.8,0.5c0.1,0,0.2,0,0.3,0.1c0.1,0,0.1,0,0.2,0l0.3-0.4L223.7,208.8z"/>
	<path class="st1" d="M246,198.3l0.2-0.1c0.1-0.1,0.3-0.2,0.4-0.2c0.2-0.1,0.3-0.1,0.3-0.1c0.1,0,0.3,0.1,0.6,0.2l0.2,0.4l0.3,0.2
		c0.2,0.1,0.4,0.3,0.6,0.6c0.2,0.2,0.3,0.4,0.3,0.8c0.1,0.2,0.1,0.3,0.1,0.5l-0.2,0.6c-0.1,0.1-0.2,0.4-0.3,0.9
		c0.2-0.3,0.1-0.3-0.2,0.2l0.8-0.2l0.2,0.2l0.3-0.1c0.2-0.1,0.3-0.2,0.4-0.2c0.1-0.1,0.4-0.2,1-0.2c0.6-0.1,0.9-0.1,0.9-0.1
		c0.1,0,0.3,0,0.6,0.1c0.3,0,0.6,0.1,0.8,0.3c0.2,0.1,0.3,0.3,0.5,0.6c0.1,0.1,0.2,0.3,0.3,0.5c0-0.1,0-0.1,0.1,0.2
		c0.1,0.1,0.1,0.3,0.1,0.5l-0.3,0.6h-0.1h-0.2c-0.2-0.1-0.3-0.1-0.5-0.2c-0.4-0.2-0.8-0.2-1.1-0.1c-0.3,0-0.7,0.1-1,0.3
		c-0.3,0.1-0.6,0.2-0.9,0.4c-0.1,0.1-0.5,0.2-1.3,0.4l-0.2-0.2l-0.3,0.1c-0.1,0-0.3,0.1-0.7,0.2c-0.2,0.1-0.3,0.1-0.4,0.2
		c-0.1,0-0.1,0-0.3,0.1c-0.3,0.1-0.6,0.2-0.8,0.4c-0.2,0.1-0.4,0.4-0.6,0.9l0.3,0.2l-0.4,0.8l0.1,0.2c0,0.1,0.1,0.3,0.2,0.6
		c-0.1-0.1,0,0,0.2,0.4l0.7-0.4c0.4-0.3,0.8-0.5,1.1-0.6c0.1-0.1,0.3-0.2,0.5-0.3c0.1-0.1,0.1-0.1,0.2-0.1c0.2-0.2,0.3-0.3,0.5-0.3
		c0.2-0.1,0.4-0.2,0.6-0.2c0.2-0.1,0.3-0.1,0.5-0.1l0.3,0.2c0.2,0.1,0.5,0.3,0.9,0.6l0.2,0.4l0.2,0.1c0.1,0,0.2,0.1,0.3,0.2
		c0.1,0,0.1,0.1,0.1,0.3c0.1,0.2,0.1,0.3,0.1,0.4c0.1,0.3,0.1,0.6,0.1,0.9l-0.3,0.4c-0.2,0.2-0.3,0.4-0.4,0.7
		c-0.1,0.2-0.1,0.4-0.3,0.7l-0.1,0.1c-0.1,0.3-0.3,0.7-0.5,1l0.2,0.2c0.1,0.1,0.2,0.3,0.3,0.5s0.2,0.4,0.3,0.6
		c0.1,0.1,0.1,0.3,0.1,0.5l-0.5,0.8H251l-0.2-0.1c-0.1-0.1-0.1-0.1-0.3-0.1c-0.2-0.2-0.5-0.3-0.8-0.4c-0.3-0.2-0.6-0.3-0.8-0.3
		c-0.3-0.1-0.5-0.1-0.7-0.1s-0.4,0-0.6,0.1c-0.2,0-0.4,0.1-0.7,0.3c-0.1,0-0.1,0-0.3,0.1s-0.5,0.2-0.8,0.3l-0.3-0.2
		c-0.1-0.1-0.1-0.2-0.3-0.3c-0.1-0.1-0.2-0.1-0.3-0.2c-0.2-0.3-0.4-0.5-0.6-0.9v-0.1c0-0.1,0-0.3-0.1-0.5c0-0.1,0-0.2-0.1-0.4
		c0-0.2,0-0.3-0.1-0.4c-0.1-0.1-0.1-0.3-0.1-0.7c-0.1-0.3-0.1-0.4-0.1-0.6c-0.1-0.6-0.1-1,0.1-1.4l-0.3,0.2c0-0.1-0.6,0.5-1.8,1.9
		l-0.5,0.1c-0.3,0-0.7,0.2-1.2,0.5l-0.2-0.2V212l-0.5,0.2v-0.4h-0.3l0.2-0.2l-0.8-0.4l0.6,0.1c0.2,0,0.4,0,0.6,0.1h0.1
		c0.1,0,0.1,0,0.3-0.1c0.1-0.1,0.2-0.1,0.3-0.1c0.1-0.1,0.1-0.1,0.3-0.2c0.3-0.2,0.6-0.4,0.8-0.6h0.2l0.3-0.4
		c0.2-0.3,0.4-0.5,0.6-0.6V209l0.3-0.4c0.2-0.3,0.3-0.5,0.3-0.7v-0.1c0.1-0.3,0.3-0.6,0.6-0.9v-0.2l0.2-0.3c0.1-0.2,0.3-0.4,0.4-0.8
		c0.2-0.3,0.3-0.8,0.4-1.4l-0.5,0.4c-0.1,0.1-0.3,0.2-0.5,0.3c-0.2,0.2-0.4,0.3-0.5,0.4c-0.3,0.2-0.6,0.4-0.9,0.6
		c-0.1,0.1-0.3,0.2-0.5,0.3c-0.1,0.1-0.1,0.1-0.2,0.1c-0.1,0-0.2,0-0.5,0.1c0.2-0.1,0.1,0-0.3,0.1c-0.3,0-0.6,0-0.8,0
		c-0.2-0.1-0.3-0.1-0.4-0.1l-0.2-0.1h-0.2c-0.1-0.1-0.2-0.2-0.5-0.2c-0.2-0.1-0.6-0.3-1-0.7l0.3-0.2c0.2-0.2,0.4-0.3,0.6-0.4
		c0.2-0.2,0.4-0.3,0.8-0.4c0.3-0.2,0.8-0.3,1.3-0.4c0.3-0.1,0.6-0.2,1-0.3c0.2-0.1,0.3-0.1,0.3-0.1c0.3-0.2,0.6-0.3,0.8-0.3
		c0.2-0.1,0.4-0.1,0.4-0.1c0.1,0,0.1,0,0.3-0.1c0.1-0.1,0.2-0.1,0.3-0.1c0.3-0.2,0.5-0.3,0.8-0.3c0.2-0.1,0.5-0.1,0.8,0.1l0.2-0.6
		c0.1-0.1,0.1-0.4,0.3-0.8c0.1-0.3,0.2-0.6,0.3-0.8l-0.3-0.3c-0.2-0.2-0.3-0.4-0.4-0.6c-0.1-0.3-0.3-0.5-0.4-0.7
		c-0.1-0.1-0.1-0.2-0.2-0.3c-0.2-0.3-0.3-0.5-0.4-0.7v-0.4L246,198.3z M248.8,203.4l-0.6,0.1c-0.2,0-0.3,0-0.5,0
		c-0.2,0.1-0.4,0.1-0.6,0.1l-0.2,0.3c0,0.1-0.1,0.2-0.2,0.3c-0.1,0.1-0.2,0.2-0.2,0.3s0,0.1-0.1,0.2c-0.2,0.3-0.3,0.5-0.4,0.9
		l0.6-0.3c0.4-0.2,0.9-0.4,1.3-0.6c0.5-0.3,1-0.5,1.5-0.7L248.8,203.4z M248.8,209.8c-0.2,0-0.4,0.1-0.7,0.2c-0.1,0-0.4,0-0.8,0.1
		c-0.3,0.1-0.6,0.1-0.8,0.2l-0.1,0.5c-0.1,0.1-0.1,0.3-0.1,0.6c0,0.2,0,0.7,0,1.4l0.3-0.1c0.2-0.1,0.3-0.2,0.2-0.1
		c0.1-0.1,0.3-0.1,0.5-0.1c0.2-0.1,0.4-0.2,0.6-0.3c0.1-0.1,0.1-0.1,0.2-0.2c0.1-0.1,0.1-0.2,0.3-0.3c0-0.1,0-0.1,0.1-0.2
		c0.1-0.1,0.1-0.3,0.3-0.6c0.1-0.3,0.2-0.7,0.3-1.2L248.8,209.8z"/>
	<path class="st1" d="M267.2,197.2c0.1-0.1,0.2,0,0.4,0.2c0.2,0.1,0.4,0.2,0.6,0.3c0.2,0,0.3,0.1,0.5,0.3c0.1,0.1,0.2,0.1,0.3,0.2
		c0.1,0.1,0.2,0.2,0.3,0.3c0.1,0,0.1,0,0.2,0.1c0.2,0.1,0.3,0.2,0.3,0.4c0.1,0.1,0.2,0.3,0.3,0.5c0.1,0.1,0.1,0.3,0.1,0.7
		c0.1,0.3,0.1,0.6,0.2,0.9h0.3c0.1,0,0.1,0,0.3,0c0.1-0.1,0.2-0.1,0.3-0.1c0.2-0.1,0.4-0.2,0.7-0.5l0.2,0.2l0.3-0.4h0.1
		c0.1,0,0.2,0,0.3,0.1c0.1,0,0.2,0,0.4,0.1c-0.1-0.1-0.1,0,0.2,0.1c0.3,0,0.4,0.1,0.5,0.3c0.1,0.1,0.2,0.2,0.3,0.4
		c0.1-0.1,0.1,0.4,0.1,1.3l-0.2,0.1c-0.1,0-0.1,0-0.3,0.1c-0.1,0.1-0.2,0.1-0.3,0.1c-0.2,0-0.4,0.1-0.7,0.3
		c-0.2,0.1-0.4,0.3-0.7,0.6c-0.2,0.2-0.4,0.3-0.5,0.5c-0.1,0-0.1,0.1-0.3,0.2c-0.1,0.1-0.2,0.1-0.3,0.2c-0.2,0.1-0.3,0.2-0.2,0.1
		c-0.1,0.1-0.3,0.2-0.4,0.4c-0.2,0.1-0.3,0.3-0.5,0.6c-0.2,0.2-0.3,0.4-0.3,0.6c-0.1,0.1-0.1,0.3-0.1,0.6c0,0.2,0,0.6,0.1,1.1
		c0.1,0.2,0.1,0.5,0.1,0.9c0,0.3,0,0.9,0,1.8h1c0.3,0,0.6,0,1-0.1c0.2,0,0.4,0,0.5,0c0.3-0.1,0.6-0.1,0.8,0c0.2,0,0.4,0,0.8,0
		c0.3-0.1,0.7-0.2,1-0.2c0.3-0.1,0.5-0.1,0.6-0.1c0.1-0.1,0.2,0,0.4,0.2c0.2,0.1,0.4,0.2,0.6,0.4c0.2,0.1,0.3,0.3,0.5,0.6
		c0.1,0.1,0.2,0.3,0.3,0.5c0-0.1,0-0.1,0.1,0.2c0,0.1,0,0.1,0.1,0.2c0.1,0.2,0.1,0.3,0.2,0.5l-0.2,0.3c-0.1,0.1-0.1,0.2-0.3,0.3
		l-0.1,0.1h-0.2c-0.2,0.1-0.3,0.1-0.4,0.1s-0.2,0-0.3-0.1c-0.2,0-0.3,0-0.4,0c-0.2-0.1-0.6-0.2-1.1-0.3c-0.5-0.2-1-0.3-1.4-0.2
		c-0.1,0-0.3,0-0.7,0c-0.4-0.1-0.7-0.1-0.9-0.1c-0.6-0.1-1.1-0.1-1.4,0c-0.2,0-0.6,0.1-1,0.3L269,214h-0.2l-0.3-0.2
		c-0.2-0.2-0.4-0.3-0.6-0.4l-0.6,0.2c-0.4,0.1-0.8,0.2-1.1,0.4c-0.3,0.1-0.7,0.2-1.1,0.4c-0.4,0.1-0.7,0.2-1,0.4
		c-0.3,0.1-0.5,0.2-0.7,0.3c-0.1,0-0.1,0-0.2,0c-0.1,0.1-0.2,0.1-0.3,0.1l-0.3-0.2c-0.2-0.2-0.3-0.3-0.3-0.4
		c-0.1-0.1-0.1-0.2-0.1-0.3s0-0.1-0.1-0.2c-0.1-0.1-0.1-0.2-0.1-0.4c0-0.1,0-0.2-0.1-0.3c0-0.1,0-0.1-0.1-0.2c0-0.2-0.1-0.3-0.2-0.4
		l0.2-0.3c0.1-0.2,0.3-0.4,0.7-0.7l-0.2,0.6l0.3-0.2l-0.2,0.4h0.1c0.1,0,0.1,0,0.2-0.1c0.2-0.1,0.4-0.2,0.6-0.3l0.2,0.2l0.4-0.2
		c0.3-0.2,0.6-0.3,0.8-0.3c0.3-0.1,0.6-0.2,1.1-0.3c0.3-0.2,0.9-0.3,1.7-0.4v-0.5c0-0.4,0-0.8,0.1-1.1c0-0.1,0-0.3,0.1-0.6
		c0.1-0.4,0.1-0.9,0.2-1.2l-0.2,0.1c-0.1,0-0.2,0.1-0.3,0.3c-0.1,0.1-0.3,0.2-0.4,0.3c-0.1,0-0.1,0-0.2,0c-0.1,0.1-0.2,0.1-0.3,0.1
		l0.3-0.4c0.2-0.3,0.4-0.5,0.6-0.6c0.2-0.2,0.3-0.3,0.3-0.4c0.1-0.1,0.1-0.3,0.1-0.6c0.1-0.3,0.1-0.4,0.1-0.6c0-0.2,0-0.5,0.1-0.9
		c0-0.4,0-0.6,0.1-0.8c0.1-0.4,0-0.9-0.3-1.4l0.2-0.4l-0.1-0.4c-0.1-0.1-0.1-0.3-0.1-0.5c-0.1-0.2-0.1-0.3-0.1-0.5
		c-0.1-0.5-0.3-0.9-0.6-1.3v-0.6C267.3,198.6,267.2,197.9,267.2,197.2L267.2,197.2z"/>
	<path class="st1" d="M291.4,195.7l0.2,0.1c0.1,0.1,0.2,0.2,0.3,0.3c0.2,0.1,0.3,0.2,0.4,0.4c0.1,0.1,0.2,0.3,0.3,0.5l0.1,0.2
		c0.1,0.2,0.2,0.5,0.3,0.9h0.1c0-0.1,0.1-0.1,0.3-0.1c0.2-0.1,0.5-0.3,0.8-0.7l0.3,0.3c0.3,0.2,0.4,0.4,0.5,0.6
		c0.1,0.2,0.2,0.4,0.3,0.7c0.1,0.1,0.1,0.4,0.1,1.1l-0.2,0.3c-0.1,0.1-0.1,0.2-0.2,0.4c-0.1,0.1-0.2,0.2-0.3,0.3
		c-0.1,0.1-0.1,0.1-0.2,0.2c-0.1,0.1-0.2,0.2-0.4,0.5c-0.2,0.1-0.3,0.2-0.2,0.1c-0.1,0.1-0.3,0.2-0.4,0.4c-0.1,0.1-0.3,0.2-0.6,0.4
		c0.1-0.1-0.1,0.1-0.5,0.4h0.3c0.2,0,0.4-0.1,0.7-0.3c0.3-0.3,0.5-0.4,0.7-0.4c0.2-0.1,0.3-0.1,0.3-0.1c0.1-0.1,0.2,0,0.4,0.2
		l0.2-0.4l0.3,0.2c0.2,0.1,0.4,0.2,0.6,0.3c0.2,0,0.5,0.2,0.8,0.7c0.3,0.4,0.5,0.7,0.6,0.9s0.1,0.4,0,0.6c-0.1,0.1-0.1,0.2-0.1,0.3
		s0,0.2-0.1,0.3s-0.1,0.2-0.1,0.4c-0.1,0.1-0.1,0.3-0.1,0.4c-0.1,0.3-0.1,0.6-0.1,1.1c0,0.4,0,1,0.1,1.9c0.1,0.3,0.1,0.7,0.1,1
		s0,0.9,0,1.9l0.2,0.2l-0.1,0.3c-0.1,0.2-0.1,0.4,0,0.7c0.1,0.2,0.1,0.6,0.1,1.1c0,0.4,0,0.8-0.1,1.1c-0.1,0.1-0.1,0.2-0.1,0.3
		c0,0.2,0,0.3-0.1,0.4s-0.1,0.2-0.3,0.5c0,0.1,0,0.2-0.1,0.3s-0.1,0.2-0.1,0.3l-0.5,0.4h0.1c-0.1,0-0.1,0-0.3-0.1l-0.1-0.1
		c-0.1,0-0.1-0.1-0.3-0.3c-0.1-0.1-0.2-0.3-0.5-0.6c0.2,0.2,0.2,0.2-0.2-0.1c-0.1-0.1-0.3-0.2-0.4-0.3c-0.2-0.1-0.3-0.1-0.3-0.2
		c-0.2-0.2-0.3-0.3-0.5-0.5s-0.3-0.3-0.3-0.4c-0.1-0.2-0.1-0.3-0.1-0.4l0.4,0.1c0.3,0,0.5,0.1,0.6,0.2h0.2l0.2,0.1h0.2
		c0.3-0.1,0.6-0.1,0.8-0.2l0.1-0.4c0.1-0.1,0.1-0.4,0.1-0.9c0-0.3,0-1,0-2.2c0-1.3,0-2.1,0-2.6c0-0.6,0-1-0.1-1.3
		c-0.1-0.8-0.1-1.6-0.1-2.4c0-0.8,0-1.2-0.1-1.3s-0.3-0.3-0.6-0.6l-0.3,0.2c-0.2,0.1-0.4,0.3-0.5,0.5c-0.1,0.1-0.1,0.2-0.3,0.3
		c-0.1,0.1-0.1,0.1-0.2,0.2c-0.1,0-0.1,0-0.1,0.1c-0.1,0.1-0.2,0.1-0.3,0.1l0.1,0.3c0.1,0.1,0.1,0.3,0.1,0.7l0.3,0.4h0.1
		c0.1-0.1,0.2,0,0.4,0.2l0.1,0.3c0,0.1,0,0.1,0.1,0.1c0,0.1,0.1,0.3,0.2,0.4v0.1c0.1,0,0,0.2-0.2,0.7l-0.3,0.1
		c-0.1-0.1-0.4,0.2-0.8,0.7L293,209c-0.1,0.2-0.1,0.5-0.1,0.9l0.3,0.1c0.3,0,0.4,0.1,0.5,0.2c0.1,0,0.2,0.1,0.3,0.3
		c0.1,0.1,0.2,0.3,0.3,0.6c0.1,0.1,0.2,0.4,0.2,0.8l-0.2,0.1h-0.2c-0.1,0.1-0.2,0.1-0.3,0.1c-0.2,0-0.4,0-0.6,0.1
		c-0.2,0-0.4,0.1-0.7,0.3l-0.1,0.8c-0.1,0.4-0.1,0.9-0.1,1.2s0,0.5-0.1,0.7c-0.1,0-0.1,0.2-0.1,0.6l-0.2,0.3
		c-0.1,0.2-0.1,0.3-0.3,0.5c-0.1,0.3-0.2,0.6-0.4,0.9H291l-0.1-0.5c-0.1-0.1-0.1-0.3-0.1-0.5c0-0.1,0-0.3-0.1-0.4
		c-0.1-0.4-0.1-0.8-0.1-1.3c0-0.6,0.1-1.1,0.2-1.7l-0.4,0.2c-0.3,0.1-0.6,0.2-1.1,0.2l-0.2-0.2c-0.1-0.1-0.1-0.2-0.1-0.3
		c-0.1-0.1-0.1-0.1-0.2-0.2c0-0.1,0-0.1-0.1-0.2c-0.1-0.2-0.1-0.3-0.2-0.5l0.1-0.2c0.1-0.2,0.1-0.3,0.1-0.4c0-0.2,0.1-0.4,0.2-0.6
		l0.4-0.1c0.3-0.1,0.6-0.3,1.1-0.5l0.1-0.3c0.1-0.2,0.1-0.5,0.1-1l-0.8,0.2l-0.3-0.2c-0.2-0.2-0.3-0.3-0.4-0.3
		c-0.1-0.1-0.2-0.2-0.3-0.3c0.2,0.1,0.1,0.1-0.3-0.2V208l0.2-0.1c0.1-0.1,0.3-0.2,0.4-0.2c0.2-0.1,0.5-0.3,1.1-0.9h0.3l0.5-0.4
		l-0.2-0.4l-0.2-0.5h-0.1l-0.2,0.1c-0.3,0.1-0.5,0.1-0.8,0.2l-0.3,0.5c-0.1,0.1-0.2,0.3-0.3,0.4c-0.1,0.2-0.2,0.3-0.3,0.5
		c-0.2,0.2-0.4,0.4-0.4,0.6c-0.1,0.1-0.2,0.4-0.2,0.9c-0.1,0.4,0,0.9,0.3,1.5l-0.3,0.4l0.1,0.7c0.1,0.4,0.1,0.8,0,1.1
		s-0.1,0.7-0.3,1c0,0.1-0.1,0.3-0.2,0.5c-0.1,0.3-0.2,0.4-0.2,0.6c-0.1,0.1-0.2,0.4-0.3,0.9c0.2-0.3,0.1-0.3-0.2,0.2h-0.2l-0.1-0.2
		c-0.1-0.1-0.2-0.6-0.4-1.5l0.1-0.2c0.1-0.1,0.1-0.2,0.1-0.3s0-0.2,0.1-0.3c0.1-0.3,0.2-0.7,0.3-1.1c0.1-0.6,0.2-1,0.3-1.2
		c0.1-0.4,0.1-0.8,0-1.2c0-0.1,0-0.3-0.1-0.4c0-0.4-0.1-0.7-0.2-0.9l0.2-0.2l-0.2-0.4l0.1-0.4c0.1-0.3,0.2-0.6,0.3-0.8
		c0.1-0.1,0.1-0.3,0.3-0.6c0.1-0.1,0.1-0.1,0.1-0.2c0.1-0.1,0.1-0.3,0.3-0.5c0.1-0.1,0.1-0.1,0.1-0.2c0-0.1,0.1-0.2,0.2-0.4
		c0.1-0.1,0.2-0.2,0.2-0.3c0.1-0.3,0.2-0.5,0.3-0.6c0.1-0.2,0.3-0.3,0.4-0.3s0.1,0,0.3-0.1c0.2-0.1,0.4-0.2,0.5-0.3
		c0.3-0.2,0.7-0.4,1-0.6c0.3-0.2,0.6-0.4,0.8-0.6c0.3-0.2,0.4-0.4,0.5-0.6c0.1-0.2,0.3-0.5,0.5-0.9c0.2-0.3,0.3-0.8,0.5-1.5
		l-0.3,0.2c-0.2,0.1-0.3,0.2-0.4,0.4c-0.1,0.1-0.3,0.3-0.8,0.6c-0.2,0.1-0.4,0.2-0.8,0.5c-0.2,0.1-0.4,0.2-0.5,0.3
		c-0.5,0.2-1,0.4-1.3,0.8c-0.4,0.2-0.8,0.5-1.1,0.9c-0.2,0.1-0.4,0.3-0.6,0.5c-0.2,0.1-0.3,0.1-0.3,0.2c-0.3,0.1-0.6,0.3-0.8,0.6
		c-0.3,0.2-0.5,0.3-0.7,0.5c-0.1,0-0.1,0-0.2,0c-0.1,0.1-0.2,0.1-0.3,0.1l-0.2-0.4l0.2-0.4l-0.1-0.2l-0.1-0.3c0-0.1,0-0.2,0.1-0.4
		c0-0.1,0-0.2,0.1-0.3c0.1-0.2,0.1-0.4,0.2-0.6h0.5l0.5-0.4c0.3-0.3,0.7-0.6,1.1-0.9c0.2-0.2,0.4-0.4,0.8-0.6
		c0.1-0.1,0.2-0.1,0.3-0.2c0.3-0.3,0.6-0.5,0.9-0.9v-0.2l0.4-0.5c0.1-0.1,0.1-0.3,0.3-0.4c0.2-0.2,0.3-0.3,0.3-0.5l-0.2-0.4
		c-0.1-0.1-0.1-0.3-0.2-0.5s-0.1-0.3-0.2-0.5h0.3c0.2-0.1,0.4,0,0.6,0.2l0.2-0.4L291.4,195.7z M290.1,203.1h-0.2l-0.3,0.3
		c-0.2,0.2-0.3,0.4-0.3,0.7c-0.1,0.1-0.1,0.2-0.1,0.3s0,0.2-0.1,0.3s-0.1,0.2-0.1,0.4c-0.1,0.1-0.1,0.2-0.1,0.3
		c-0.1,0.1-0.1,0.3-0.1,0.7c-0.1,0.4-0.1,0.8-0.2,1.1l0.3-0.4c0.1-0.1,0.1-0.2,0.3-0.3c0.1-0.2,0.1-0.3,0.2-0.4
		c0.1-0.2,0.3-0.4,0.4-0.8c0.2-0.4,0.4-0.7,0.6-0.9c0.2-0.4,0.5-0.7,0.8-0.9h-0.7L290.1,203.1z"/>
</g>
<g class="st0">
	<path class="st1" d="M167.6,225.5c0.1,0.1,0.2,0.2,0.5,0.4c0.1,0,0.2,0,0.3,0.1c0.4,0.1,0.7,0.3,0.8,0.6h0.1c0.1,0,0.2,0,0.3,0.1
		c0.1,0,0.3,0.1,0.4,0.4c0.2,0.1,0.3,0.4,0.4,0.8c0.1,0.3,0.1,0.3,0.1,0.2c0.1,0.1,0.1,0.3,0.1,0.5c0,0.1,0,0.3-0.1,0.5
		s-0.2,0.4-0.3,0.6c-0.2,0.2-0.4,0.4-0.6,0.6c-0.1,0.1-0.2,0.2-0.3,0.3s-0.2,0.2-0.3,0.3c-0.2,0.2-0.4,0.4-0.6,0.7
		c-0.1,0.1-0.1,0.2-0.2,0.3c-0.2,0.3-0.4,0.5-0.6,0.7h0.5l0.2-0.2l0.5,0.2c0.3,0.1,0.6,0.2,0.8,0.4c0.2,0.1,0.4,0.3,0.7,0.7
		c0.3,0.3,0.4,0.5,0.5,0.9c0.1,0.2,0.1,0.4,0.1,0.6c0,0.1,0,0.2-0.1,0.3s-0.1,0.2-0.1,0.3s-0.1,0.2-0.2,0.3
		c-0.1,0.1-0.2,0.2-0.2,0.3c-0.1,0.1-0.3,0.3-0.4,0.6l-0.1,0.1c-0.2,0.3-0.5,0.6-0.8,0.9h0.4c0.3,0,0.6,0,0.9,0.1
		c0.3,0,0.6,0.1,0.8,0.4c0.2,0.2,0.4,0.3,0.6,0.4c0.2-0.1,0.4,0.1,0.6,0.5l0.2,1.3l-0.3,0.4l0.2,0.2l-0.1,0.7
		c-0.1,0.1-0.1,0.3-0.1,0.6c-0.1,0.3-0.1,0.5-0.2,0.7c-0.1,0.4-0.3,0.8-0.4,1.1c-0.2,0.4-0.4,0.8-0.8,1.1v0.1l-0.3,0.3v0.4H170
		l-0.2,0.3c-0.1,0.2-0.3,0.4-0.7,0.7H169l-0.3-0.3c-0.1-0.1-0.1-0.1-0.3-0.2c-0.2-0.2-0.4-0.3-0.6-0.5h-0.1c-0.1,0-0.1,0-0.3-0.1
		c-0.1-0.1-0.1-0.1-0.2-0.1c-0.1-0.1-0.2-0.1-0.3-0.1c-0.2-0.1-0.3-0.2-0.5-0.4s-0.3-0.4-0.3-0.6c0-0.1,0-0.2-0.1-0.3
		c-0.1-0.3-0.2-0.5-0.3-0.8l0.4,0.3c0.3,0.2,0.6,0.3,0.9,0.3s0.6,0,0.9,0.1c0.3,0,0.5,0,0.8,0c0.1-0.1,0.3-0.2,0.5-0.3
		c0.1-0.1,0.1-0.1,0.2-0.2c0.3-0.3,0.4-0.6,0.5-0.9c0.1-0.4,0.3-0.7,0.4-1c0.1-0.3,0.3-0.7,0.4-1.2l-0.2-0.2V240l-0.7-0.4l-0.2,0.1
		c-0.1,0-0.3,0.1-0.4,0.2c-0.1,0-0.2,0-0.5,0.1c0.2-0.1,0.1,0-0.3,0.1c-0.3,0-0.7,0.1-1,0.4c-0.1,0.1-0.2,0.1-0.3,0.2
		c-0.1,0.1-0.2,0.1-0.3,0.2c-0.1,0-0.3,0.1-0.4,0.4c-0.1,0.1-0.1,0.1-0.3,0.2c-0.1,0.1-0.2,0.2-0.3,0.3c-0.2,0.1-0.4,0.2-0.6,0.3
		c-0.2,0-0.4,0.1-0.7,0.3l-0.1-0.1c-0.1-0.1-0.1-0.2-0.1-0.5c-0.1-0.1-0.1-0.3-0.1-0.4c0-0.1,0-0.2-0.1-0.4c0-0.4-0.1-0.6-0.2-0.8
		l0.3-0.5c0.1-0.1,0.2-0.3,0.3-0.6c0.1-0.2,0.2-0.3,0.3-0.5h0.2l0.3,0.4l0.3-0.6c0.3-0.4,0.5-0.7,0.8-1c0.1-0.1,0.2-0.3,0.3-0.5
		c0.2-0.2,0.3-0.3,0.3-0.5c0.2-0.4,0.3-0.6,0.5-0.8s0.4-0.5,0.6-1l-0.3-0.2l-0.7,0.3c-0.4,0.2-0.8,0.4-1.2,0.6
		c-0.3,0.2-0.7,0.4-1,0.7c-0.1,0.1-0.3,0.2-0.4,0.3c-0.3,0.2-0.5,0.3-0.7,0.4c-0.3,0.1-0.7,0.4-1.3,0.9h-0.2l-0.1-0.2
		c-0.1-0.1-0.1-0.2-0.1-0.4c-0.1-0.1-0.1-0.2-0.1-0.3c-0.1-0.4-0.1-0.6-0.1-0.8s0-0.4,0.1-0.6c0-0.1,0-0.2,0.1-0.3
		c0.1-0.2,0.1-0.4,0.2-0.6l0.3-0.2v-0.4l0.5-0.2l0.2,0.2l0.3-0.3c0.2-0.2,0.4-0.4,0.6-0.6c0.2-0.2,0.3-0.3,0.5-0.5
		c0.1-0.1,0.1-0.2,0.3-0.3c0.1-0.1,0.2-0.1,0.3-0.2c0.2-0.3,0.3-0.5,0.4-0.7c0.1-0.1,0.1-0.3,0.3-0.5c0.1-0.1,0.1-0.1,0.1-0.2
		c0.1-0.3,0.3-0.5,0.5-0.7c0.3-0.3,0.4-0.6,0.5-0.8c0.1-0.3,0.2-0.5,0.3-0.7s0.1-0.4,0-0.6c-0.1-0.2-0.1-0.4-0.3-0.8v-0.1
		c-0.1-0.4-0.2-0.8-0.2-1.3H167.6z M172.2,232.1c0.2,0.1,0.3,0.2,0.2,0.1c0.1,0.1,0.3,0.1,0.5,0.1l0.2-0.4h0.2c0.1,0,0.4,0,0.8,0.1
		c0.4,0,0.8,0.1,1,0.3c0.3,0.1,0.5,0.2,0.7,0.3c0.2,0,0.3,0.1,0.4,0.3c0.1,0.1,0.2,0.3,0.3,0.6c0.1,0.1,0.1,0.2,0.1,0.3
		c0,0.2,0,0.3,0.1,0.4c0.1,0.2,0.1,0.4,0.1,0.6c0,0.2-0.1,0.4-0.2,0.7l-0.2,0.1h-0.2c-0.1,0.1-0.2,0.1-0.3,0.1s-0.1,0-0.3-0.1
		c-0.1,0-0.2,0-0.3,0c-0.2-0.1-0.4-0.2-0.6-0.4c-0.1-0.1-0.1-0.1-0.3-0.2c-0.2-0.3-0.4-0.4-0.6-0.5c-0.3-0.3-0.7-0.6-1-0.9
		c-0.3-0.3-0.6-0.8-1-1.5L172.2,232.1z"/>
	<path class="st1" d="M189.5,224.5c0.1-0.1,0.2,0,0.4,0.2c0.1,0,0.1,0,0.3,0.1c0.1,0.1,0.2,0.1,0.3,0.1h0.2c0.2-0.1,0.3-0.1,0.4-0.1
		c0.3-0.1,0.5-0.1,0.7-0.1c0.2-0.1,0.4,0,0.6,0.2c0.2,0.1,0.4,0.3,0.6,0.5c0.2,0.2,0.5,0.6,0.8,1.2l1-0.1c0.7-0.1,1.1-0.1,1.3-0.1
		c0.2-0.1,0.4,0,0.6,0.2c0.1,0.1,0.3,0.2,0.5,0.3c0.1,0.1,0.1,0.1,0.2,0.2l0.1,0.1c0.2,0.1,0.4,0.3,0.6,0.6v0.4l-0.5,0.4h-0.1h-0.1
		c-0.2-0.1-0.3-0.1-0.4-0.1c-0.3-0.1-0.5-0.1-0.6-0.1c-0.1-0.1-0.5,0-1.3,0.2c-0.4,0.1-1,0.2-1.8,0.3c0.2-0.1,0,0-0.8,0.1v0.2
		l-0.5,0.1c-0.3,0-0.6,0.1-0.9,0.4c-0.2,0.2-0.5,0.4-0.8,0.6l-0.1,0.1c-0.2,0.1-0.4,0.3-0.6,0.6v0.4l0.3-0.2c0.3-0.2,0.6-0.4,1-0.6
		c0.4-0.3,0.9-0.5,1.3-0.6c0.4-0.2,0.7-0.3,0.8-0.2c0.1,0,0.3,0,0.5,0.1c0.1,0,0.3,0.1,0.5,0.3c0.1,0.1,0.1,0.1,0.2,0.1
		c0.3,0.2,0.7,0.6,1.2,1.2l-0.1,0.3c-0.1,0.2-0.2,0.4-0.4,0.6c-0.1,0.1-0.3,0.2-0.6,0.4c0.1-0.1,0,0-0.4,0.3l0.1,0.3
		c0.1,0.1,0.1,0.3,0.1,0.5l-0.3,0.2c-0.2,0.1-0.3,0.2-0.4,0.3c-0.1,0-0.2,0.1-0.5,0.3c0.3-0.2,0.2-0.1-0.3,0.2
		c-0.2,0.1-0.6,0.4-1.2,0.8c-0.1,0.1-0.2,0.2-0.3,0.3l0.6-0.1c0.3,0.1,0.7-0.1,1.2-0.6h0.2c0.1,0,0.2,0,0.3,0.1
		c0.1,0,0.3,0.1,0.5,0.3c0.3,0.1,0.4,0.3,0.5,0.5c0,0.1,0.1,0.2,0.2,0.3c0.1,0.1,0.2,0.2,0.2,0.3c0.1,0.1,0.2,0.3,0.3,0.5l-0.3,0.3
		c-0.2,0.2-0.4,0.4-0.7,0.6c-0.1,0.1-0.3,0.2-0.6,0.4c-0.3,0.3-0.7,0.5-1,0.7l0.7,0.2l0.1,0.3c0.1,0.1,0.1,0.3,0.1,0.5l0.7-0.1
		c0.1,0,0.2,0,0.3-0.1c0.7-0.1,1.5-0.3,2.5-0.6l0.2,0.1c0.1,0,0.2,0,0.3,0.1c0.3,0.1,0.5,0.1,0.7,0.2l0.3,0.4
		c0.2,0.2,0.4,0.5,0.6,0.9v0.4l-0.5,0.6h-0.2l-0.3-0.1c-0.2-0.1-0.4-0.1-0.6-0.1c-0.3-0.1-0.7-0.3-1.2-0.4c0.3,0.1,0.2,0.1-0.3,0
		c-0.4-0.2-0.7-0.3-0.8-0.2c-0.3,0-0.8,0.1-1.7,0.3v0.1c0,0.1,0,0.7-0.1,1.8c0,0.3,0,0.6-0.1,1c0,0.3,0,0.6-0.1,0.9
		c-0.1,0.3-0.1,0.7-0.3,1c-0.1,0.4-0.2,0.7-0.5,0.9c-0.2,0.3-0.4,0.5-0.5,0.7c-0.1,0.1-0.2,0.3-0.3,0.4c0.2-0.1,0.1,0-0.2,0.1
		l-0.3-0.2c-0.1-0.1-0.2-0.1-0.3-0.2c-0.1-0.1-0.2-0.2-0.3-0.3c-0.2-0.2-0.4-0.3-0.6-0.4c-0.1,0-0.1,0-0.2-0.1
		c-0.1,0-0.2-0.1-0.5-0.3s-0.6-0.4-0.8-0.8c-0.2-0.3-0.5-0.6-0.8-0.8c-0.2-0.1-0.5-0.4-1-1l0.8,0.5c0.5,0.3,1,0.4,1.4,0.5
		s0.9,0.2,1.4,0.3s0.9,0.1,1.3-0.1l0.2-0.3c0.1-0.3,0.2-0.9,0.3-1.8c0.1-1,0.1-1.6,0.1-1.8h-0.1l-0.4,0.1c-0.3,0.1-0.6,0.3-0.9,0.4
		c-0.8,0.2-1.6,0.4-2.2,0.8c-0.6,0.2-1.1,0.4-1.6,0.8c-0.1,0.1-0.3,0.2-0.5,0.3s-0.4,0.1-0.5,0.2c-0.2,0-0.3,0.1-0.5,0.3l-0.3-0.6
		c-0.2-0.4-0.3-0.7-0.4-1c0-0.1,0-0.3-0.1-0.5l-0.1-0.2l0.3-0.1c0.2-0.1,0.5-0.1,0.9-0.1s0.8-0.1,1.1-0.3s0.8-0.3,1.4-0.5
		c0.4-0.1,1.5-0.4,3.4-0.9l-0.3-0.4c-0.1-0.1-0.1-0.1-0.2-0.2c-0.1-0.1-0.3-0.2-0.4-0.2c-0.2-0.1-0.5-0.3-0.9-0.5V239l0.3-0.6h0.1
		c0.1,0,0.3,0,0.5,0.1c0.1,0,0.3,0,0.4,0c0.1,0.1,0.2,0.1,0.3,0.1l0.5-0.4c0.2-0.1,0.2-0.2,0.2-0.1c0.3-0.3,0.6-0.5,0.8-0.9
		l-0.3-0.6l-0.4,0.1c-0.2,0-0.5,0.1-0.8,0.4c-0.2,0.2-0.6,0.4-1.1,0.6c-0.5,0.2-1,0.4-1.3,0.7c-0.2,0.1-0.4,0.2-0.7,0.4
		c-0.2,0.1-0.3,0.2-0.4,0.3c-0.3,0.2-0.6,0.3-0.8,0.3l-0.1-0.3c-0.1-0.2-0.1-0.3-0.1-0.5c0-0.1,0.1-0.4,0.2-0.9
		c0.1-0.2,0.1-0.4,0.2-0.6h0.4c0.1,0,0.4-0.1,0.8-0.3c0.1-0.1,0.2-0.1,0.3-0.1l0.1-0.1c0.4-0.3,0.8-0.4,1.1-0.5V236
		c0.1-0.1,0.2-0.2,0.3-0.4c0.2-0.2,0.4-0.5,0.6-1l-0.8,0.2l-0.5,0.6h-0.2c-0.1-0.1-0.2,0-0.5,0.2l-0.2-0.3c0-0.1-0.1-0.2-0.2-0.3
		c-0.1-0.1-0.2-0.2-0.2-0.3c-0.1-0.1-0.1-0.2-0.1-0.4c-0.1-0.1-0.1-0.2-0.2-0.3l-0.1-0.5c0-0.1,0-0.3,0.1-0.6c0-0.1,0-0.3,0.1-0.5
		c0-0.2,0-0.3,0.1-0.4c0.1-0.3,0.2-0.6,0.3-0.9c0.2-0.4,0.4-0.7,0.6-0.9c0.2-0.3,0.6-0.6,1.3-0.9l-0.9,0.4c-0.6,0.2-1.1,0.4-1.4,0.6
		c-0.3,0.1-0.6,0.2-0.9,0.4c-0.2,0.1-0.4,0.2-0.6,0.4l-0.3-0.2c-0.2-0.2-0.5-0.3-0.8-0.4c-0.1-0.1-0.3-0.2-0.5-0.3
		c-0.1-0.1-0.1-0.1-0.2-0.1l-0.1-0.1c-0.2-0.2-0.4-0.4-0.5-0.7v-0.4l0.3-0.4v0.2l0.3,0.1c0.1,0,0.1,0,0.3,0.1h0.2h0.2
		c0.2-0.1,0.3-0.1,0.4-0.1c0.3-0.1,0.7-0.2,1.3-0.3c0.2-0.1,0.5-0.2,0.9-0.3c0.3-0.1,0.6-0.1,0.8-0.2c0.4-0.1,1.1-0.4,2-0.9
		l-0.3-0.5c-0.2-0.4-0.4-0.7-0.6-0.9c-0.1-0.1-0.2-0.3-0.3-0.6C189.6,224.7,189.5,224.6,189.5,224.5L189.5,224.5z M193,231.1
		l-0.6,0.3c-0.1,0.1-0.3,0.1-0.5,0.2c-0.3,0.1-0.5,0.2-0.6,0.3s-0.3,0.1-0.6,0.2c-0.2,0.1-0.4,0.1-0.6,0.2L190,233l0.2,0.4l0.3-0.1
		c0.2-0.1,0.4-0.2,0.7-0.3c0.3-0.2,0.5-0.3,0.8-0.4c0.1-0.1,0.1-0.1,0.3-0.2c0.2-0.1,0.5-0.3,0.8-0.6L193,231.1z"/>
	<path class="st1" d="M216.6,226.5l0.3,0.2c0.2,0.1,0.3,0.3,0.4,0.5c0.1,0.1,0.1,0.2,0.2,0.3c0.2,0.1,0.3,0.3,0.3,0.4l-0.1,0.2
		c-0.1,0.1-0.1,0.1-0.1,0.2c-0.1,0.1-0.1,0.2-0.1,0.3s0,0.1-0.1,0.2c0,0.1-0.1,0.3-0.3,0.8c-0.2,0.4-0.3,0.6-0.3,0.8l0.5,0.3
		c0.3,0.2,0.7,0.5,1.1,0.9c0.4,0.3,0.8,0.6,1.1,0.9c0.1,0.1,0.3,0.3,0.6,0.5c0.2,0.3,0.4,0.4,0.5,0.6c0.4,0.4,0.8,0.7,1.1,0.9
		c0.1,0.1,0.3,0.2,0.6,0.5c0.2,0.1,0.4,0.2,0.5,0.3c0.2,0.1,0.3,0.2,0.5,0.3l0.2,0.1c0.1,0,0.3,0.1,0.5,0.3c0.1,0.1,0.6,0.4,1.4,0.9
		l0.1,0.3c0.1,0.1,0.1,0.3,0.1,0.5l-0.7,0.2l-0.3-0.4h-0.1c-0.1,0-0.2,0-0.4,0.1c-0.2,0-0.4,0.1-0.5,0.2h-0.1
		c-0.2,0.1-0.5,0.1-0.8,0.1l-0.3-0.4l-0.3,0.4l-0.1-0.2c-0.1-0.2-0.2-0.3-0.4-0.5c-0.1-0.1-0.2-0.2-0.3-0.4
		c-0.1-0.1-0.2-0.2-0.3-0.3c-0.2-0.3-0.5-0.6-0.8-0.9c-0.3-0.4-0.6-0.9-0.9-1.2c-0.3-0.5-0.6-0.9-0.9-1.1c-0.2-0.4-0.5-0.6-0.8-0.7
		c-0.2-0.2-0.5-0.3-0.8-0.3c-0.3-0.1-0.5-0.1-0.7-0.1L216,232l-0.3,0.6c-0.1,0.2-0.2,0.5-0.5,0.9c-0.1,0.1-0.2,0.3-0.3,0.4
		c-0.1,0.2-0.3,0.5-0.6,0.9c-0.2,0.3-0.4,0.6-0.6,0.8l0.3-0.1c0.2-0.1,0.4-0.2,0.8-0.2c0.3-0.1,0.6-0.2,0.9-0.3
		c0.1-0.1,0.3-0.3,0.7-0.4c0.2-0.1,0.3-0.1,0.4-0.2V234l0.2,0.1c0.1,0,0.1,0,0.2,0c0,0.1,0,0.1,0.1,0.1s0.2,0,0.3,0.1
		c0.1,0,0.2,0,0.4,0.1s0.3,0.1,0.5,0.2l0.3,0.6v0.6l-0.2,0.2c-0.1,0.1-0.2,0.2-0.5,0.3c-0.2,0-0.5,0.1-0.8,0.2
		c-0.2,0-0.5,0.1-0.8,0.4c-0.2,0.2-0.4,0.3-0.6,0.4c-0.1,0-0.1,0-0.3,0.1h-0.1h-0.1c-0.1-0.1-0.2-0.1-0.3-0.1
		c-0.2-0.1-0.3-0.1-0.3-0.1c-0.2,0-0.5,0.1-0.9,0.2l0.5-0.8l-0.3-0.1c-0.2-0.1-0.3-0.2-0.4-0.3c-0.1-0.2-0.2-0.3-0.5-0.4l-0.8,0.9
		c-0.4,0.6-0.8,0.9-0.9,0.9v0.1l-0.1,0.2c0,0.2,0,0.3-0.1,0.5c0,0.1,0,0.2-0.1,0.4c-0.1,0.3-0.2,0.5-0.3,0.7
		c-0.1,0.1-0.1,0.3-0.2,0.7c-0.1,0.3-0.2,0.5-0.3,0.7c-0.2,0.4-0.3,0.9-0.5,1.5c-0.1,0.1-0.1,0.2-0.2,0.4c-0.1,0.2-0.1,0.5-0.3,0.9
		c0,0.1-0.1,0.2-0.2,0.5c-0.1,0.3-0.2,0.5-0.3,0.8h-0.1l-0.2-0.1c-0.1-0.1-0.1-0.1-0.3-0.1l-0.1-0.3c-0.1-0.2-0.1-0.5-0.3-0.9
		c-0.1-0.4-0.1-0.7-0.3-0.9c-0.1-0.2-0.1-0.3-0.1-0.5s0-0.3,0.1-0.5s0.1-0.3,0.1-0.2c0-0.1,0.1-0.3,0.3-0.7c0.3-0.4,0.4-0.8,0.5-1.1
		s0.2-0.7,0.3-1.1l-0.2-0.4l-0.7,0.4l-0.1,0.2c-0.1,0.1-0.1,0.2-0.3,0.4c0.1-0.2,0.1-0.1-0.2,0.4H207l-0.1-0.3
		c-0.1-0.2-0.1-0.5-0.1-1c0-0.6,0-0.9,0.1-0.9c0.1-0.1,0.1-0.2,0.2-0.3c0-0.1,0-0.1,0.1-0.2c0.1-0.2,0.3-0.3,0.5-0.5v-0.2l0.3-0.4
		c0.1-0.1,0.1-0.2,0.2-0.3c0.2-0.3,0.3-0.5,0.4-0.7l-0.2-0.4h-0.2l-0.3,0.3c-0.2,0.2-0.4,0.3-0.6,0.4c-0.1,0-0.3,0.1-0.4,0.3
		l-0.2-0.3c-0.1-0.2-0.1-0.4-0.3-0.8c-0.1-0.4-0.1-0.7-0.1-0.9c0-0.3,0-0.5,0.1-0.7s0.2-0.4,0.4-0.7h0.2l0.2-0.1h0.2
		c0.1-0.1,0.3-0.2,0.4-0.3c0.2-0.2,0.4-0.4,0.6-0.7c0.2-0.4,0.4-0.6,0.7-0.8s0.4-0.4,0.5-0.6c0.1-0.2,0.2-0.4,0.3-0.6
		c0.1-0.2,0.1-0.4,0.1-0.7l-0.3-0.6l0.3-0.2l0.3,0.2l0.2-0.2l0.4,0.2c0.3,0.1,0.5,0.2,0.6,0.3c0.1,0,0.2,0.1,0.3,0.4
		c0,0.1,0.1,0.2,0.2,0.3c0.1,0.2,0.2,0.4,0.3,0.6v0.6l-0.3,0.3c-0.2,0.2-0.3,0.4-0.5,0.7c-0.2,0.2-0.4,0.4-0.8,0.8
		c-0.2,0.1-0.6,0.4-1.2,1.1l0.2,0.1c0.1,0,0.3,0.1,0.4,0.3c0.2,0.1,0.3,0.3,0.4,0.5c0.1,0.2,0.2,0.4,0.3,0.6
		c0.1,0.1,0.1,0.3,0.1,0.7l-0.2,0.3c-0.1,0.1-0.1,0.2-0.3,0.4s-0.3,0.3-0.3,0.5c-0.2,0.3-0.5,0.6-0.9,1.1l0.3,0.2l0.1,0.2
		c0.1,0.1,0.1,0.2,0.1,0.4c0,0.1,0,0.2-0.1,0.4c-0.1,0.1-0.1,0.2-0.1,0.4c-0.1,0.2-0.1,0.4-0.2,0.6l0.3-0.4c0.2-0.3,0.4-0.6,0.7-1.1
		l-0.2-0.2c-0.1-0.2-0.1-0.3-0.1-0.4l0.5-0.6c0.3-0.4,0.6-0.8,0.9-1.1c0.1-0.1,0.3-0.3,0.4-0.7c0.1-0.3,0.2-0.4,0.3-0.6
		c0.1-0.1,0.1-0.2,0.2-0.4c0.1-0.3,0.3-0.5,0.4-0.7c0.2-0.3,0.3-0.6,0.5-0.9c0.2-0.4,0.3-0.8,0.5-1.1c0.2-0.4,0.4-0.9,0.6-1.2
		c0.1-0.1,0.3-0.4,0.4-0.8c0.2-0.3,0.3-0.6,0.4-0.8l-0.3-0.6l-0.2,0.4l0.1-0.3c0.1-0.2,0.2-0.4,0.3-0.6c0.1-0.2,0.3-0.4,0.7-0.7
		L216.6,226.5L216.6,226.5z M218.1,237.3c0.1,0,0.1,0,0.3,0.1c0.1,0.1,0.2,0.1,0.3,0.1c0.2,0,0.5,0.2,0.8,0.7
		c0.3,0.4,0.5,0.7,0.6,0.9c0,0.1,0,0.2,0.1,0.3c0.1,0.2,0.1,0.3,0.2,0.5l-0.2,0.2c-0.1,0.1-0.1,0.2-0.3,0.4l-0.1,0.2
		c-0.1,0.3-0.2,0.4-0.3,0.6c-0.2,0.3-0.4,0.7-0.7,1.1l0.3,0.2l0.1,0.3c0.1,0.1,0.1,0.3,0.1,0.5c0,0.1-0.1,0.3-0.2,0.6H219h-0.1
		c-0.2-0.1-0.3-0.1-0.5-0.2l-0.2,0.4l-0.3-0.2c-0.2-0.2-0.5-0.3-0.9-0.3c-0.4-0.1-0.6-0.1-0.8-0.1c-0.1,0-0.3,0-0.4,0.1
		c-0.2,0-0.3,0.1-0.5,0.2c-0.2,0-0.3,0.1-0.5,0.3c-0.2,0.1-0.4,0.3-0.6,0.6h-0.3l-0.1-0.2c-0.1-0.1-0.1-0.2-0.1-0.3
		c-0.1-0.1-0.1-0.1-0.2-0.2c0-0.1-0.1-0.2-0.2-0.4c-0.1-0.1-0.2-0.2-0.2-0.3c-0.1-0.3-0.1-0.6-0.3-0.9c-0.1-0.1-0.1-0.3-0.1-0.7
		c-0.1-0.3-0.1-0.4-0.2-0.6c-0.1-0.6-0.2-1.4-0.3-2.4l0.2-0.2l0.3,0.2c0.2,0,0.4,0.3,0.8,0.8l0.5-0.4c0.3-0.3,0.7-0.5,1-0.6
		c0.2-0.1,0.4-0.2,0.8-0.3c-0.2,0-0.1,0,0.2-0.1c0.1-0.1,0.3-0.2,0.4-0.3c0.2-0.1,0.3-0.1,0.4-0.2c0.2-0.2,0.5-0.3,0.9-0.5
		L218.1,237.3z M217.2,239.6c-0.2-0.1-0.6,0.2-1.2,0.7h-0.3c-0.3,0-0.8,0.1-1.5,0.2l0.2,2.1l0.4-0.1c0.3-0.1,0.6-0.2,0.9-0.2
		c0.3-0.1,0.6-0.1,0.8-0.1l0.3-0.5c0.3-0.4,0.4-0.7,0.5-0.9c0.1-0.3,0.2-0.7,0.3-1.2H217.2z"/>
	<path class="st1" d="M234.1,226.8c0.1,0.1,0.3,0.1,0.4,0.2c0.2,0.1,0.3,0.2,0.4,0.3c0.3,0.1,0.5,0.3,0.8,0.6
		c0.2,0.1,0.4,0.5,0.7,1.1l-0.1,0.1c-0.1,0-0.1,0.1-0.2,0.2c0,0.1,0,0.2-0.1,0.3h-0.3l-0.3,0.4c-0.1,0.1-0.3,0.3-0.5,0.6
		c-0.1,0.2-0.1,0.3-0.2,0.4c-0.2,0.4-0.3,0.4-0.1,0.1c-0.2,0.3-0.4,0.6-0.6,0.8c-0.2,0.1-0.5,0.5-0.8,1l0.3,0.2
		c0.2,0.1,0.3,0.2,0.4,0.4l0.5-0.6l-0.2,0.8l0.1,0.1c0.1,0,0.1,0.1,0.1,0.2c0.1,0.2,0.1,0.3,0.2,0.5l-0.1,0.2
		c-0.1,0.1-0.1,0.2-0.1,0.4l-0.1,0.2c0,0.2,0,0.3-0.1,0.5c-0.1,0.3-0.2,0.7-0.2,1.4c0,0.6-0.1,1.1-0.2,1.5c0,0.1,0,0.2-0.1,0.3
		c-0.1,0.3-0.1,0.5-0.1,0.8l0.3,0.1c0.2,0.1,0.3,0.3,0.4,0.5c0,0.1,0.1,0.2,0.2,0.3c0.1,0.1,0.2,0.2,0.2,0.3
		c0.1,0.2,0.2,0.5,0.3,0.9c0,0.1,0,0.3,0.1,0.4c0.1,0.4,0.1,0.7,0.2,0.9l0.3,0.1c0.2,0,0.4,0.1,0.6,0.3c0.3,0.1,0.5,0.2,0.8,0.4
		c0.3,0.1,0.5,0.2,0.8,0.3c0.1,0,0.3,0,0.7,0.1c-0.2-0.1-0.2,0,0.2,0.1c0.1,0,0.3,0,0.5,0c0.2,0.1,0.4,0.1,0.5,0.1s0.3,0,0.5-0.1
		c0.2,0,0.4,0,0.4,0c0.3-0.1,0.6-0.2,1.1-0.3l-0.3-0.5c-0.2-0.4-0.3-0.4-0.2-0.2c-0.1-0.3-0.3-0.5-0.5-0.8c-0.1-0.1-0.1-0.3-0.3-0.4
		c-0.1-0.2-0.2-0.3-0.3-0.4l-0.2,0.1c-0.1,0.1-0.2,0.3-0.5,0.5c-0.2,0.1-0.5,0.5-0.8,1h-0.2l-0.3-0.2c-0.1-0.1-0.2-0.2-0.4-0.4
		c0.1,0.1,0.1,0-0.2-0.1c-0.1-0.1-0.2-0.2-0.3-0.4l-0.1-0.1c0-0.1-0.1-0.2-0.2-0.3c-0.1-0.2-0.1-0.3-0.3-0.5v-0.2l0.3-0.4l-0.2-1.7
		h0.5c0.3,0,0.6,0,0.7,0.1c0.1,0,0.2,0.1,0.3,0.4c0.1,0.2,0.2,0.6,0.3,1.2h0.2l0.3-0.2c0.1-0.1,0.3-0.3,0.7-0.4
		c-0.3,0.1-0.2,0,0.2-0.1c0.1-0.1,0.2-0.1,0.3-0.2c0.2-0.1,0.4-0.2,0.8-0.3c0.1-0.1,0.2-0.1,0.3-0.2c0.1-0.1,0.3-0.2,0.5-0.3
		c0.1-0.1,0.1-0.1,0.2-0.2c0.1-0.1,0.3-0.2,0.4-0.2c0.2-0.1,0.3-0.1,0.5-0.1s0.4,0,0.8,0.1c0.4,0,0.7,0.1,0.8,0.2
		c0.2,0,0.3,0.1,0.4,0.2c0.1,0,0.3,0.2,0.5,0.5c0.2,0.2,0.4,0.4,0.4,0.8c0.1,0.1,0.1,0.4,0.1,0.8l-0.3,0.4h-0.2h-0.2
		c-0.2-0.1-0.3-0.1-0.4-0.1c-0.2-0.1-0.5-0.2-0.8-0.3c-0.1-0.1-0.2-0.2-0.3-0.3c-0.1-0.1-0.2-0.2-0.3-0.3c-0.2-0.3-0.4-0.5-0.7-0.7
		c-0.1,0-0.1,0-0.2-0.1c-0.2-0.2-0.4-0.3-0.7-0.4l0.2,0.4l-0.3,0.2c-0.2,0.1-0.5,0.3-0.8,0.6c-0.2,0.1-0.5,0.4-0.8,0.8l0.3,0.2
		c0.2,0.1,0.3,0.2,0.5,0.4c0.2,0.1,0.4,0.3,0.8,0.7c0.4,0.3,0.8,0.6,1.1,0.9c0.1,0.1,0.3,0.2,0.4,0.4c0.2,0.2,0.3,0.3,0.4,0.4
		c0.2,0.1,0.2,0.2,0.2,0.1c0.2,0.1,0.4,0.3,0.5,0.5v0.1l-0.5,0.6l-0.4,0.1c-0.1,0.1-0.3,0.1-0.4,0.1c-0.2,0.1-0.4,0.1-0.5,0.1
		c-0.1,0.1-0.3,0.1-0.6,0.1c-0.3,0.1-0.5,0.1-0.7,0.1c-0.5,0.1-0.9,0.1-1.2,0.1c-0.3,0-0.6,0-1.1-0.1c-0.1,0-0.3,0-0.5-0.1
		c-0.2,0-0.4,0-0.5-0.1c-0.2-0.1-0.5-0.2-0.9-0.4s-0.7-0.4-0.9-0.6c-0.2-0.1-0.5-0.2-0.8-0.4c-0.3-0.3-0.5-0.5-0.7-0.7
		c-0.2-0.3-0.3-0.6-0.4-0.9c-0.1-0.4-0.3-0.7-0.4-0.9c-0.2-0.3-0.3-0.7-0.4-1.2c-0.1-0.6-0.2-1-0.3-1.2l-0.1,0.1
		c-0.1,0-0.1,0.1-0.3,0.3c0.1-0.2,0.1-0.1-0.1,0.2c-0.2,0.2-0.3,0.4-0.3,0.6c-0.1,0.1-0.1,0.2-0.1,0.4c-0.1,0.2-0.1,0.3-0.1,0.5
		c0,0.1,0,0.3-0.1,0.5c0,0.3,0,0.4-0.1,0.5c-0.1,0.2-0.1,0.5-0.3,0.9c-0.1,0.4-0.1,0.8-0.3,1.1c0,0.1,0,0.1-0.1,0.2
		c-0.1,0.3-0.1,0.5-0.2,0.7h0l-0.2-0.4c-0.1-0.1-0.1-0.3-0.3-0.4c-0.1-0.1-0.1-0.1-0.1-0.2c-0.1-0.3-0.1-0.6-0.3-0.8l-0.1-0.5
		c0-0.1,0-0.2,0.1-0.3s0.1-0.2,0.1-0.3c0.1-0.1,0.1-0.3,0.2-0.6c0.1-0.2,0.2-0.3,0.2-0.4c0.1-0.4,0.2-0.7,0.3-0.9
		c0.1-0.3,0.1-0.6-0.1-0.9h0.2l0.2,0.2l0.2,0.2c0.2,0.1,0.3,0.3,0.5,0.4l0.3-0.9l0.2-0.1c0.1-0.1,0.3-0.2,0.4-0.2
		c0.2-0.1,0.4-0.1,0.6-0.1l-0.1-0.2c-0.1-0.1-0.1-0.2-0.1-0.3s0-0.1-0.1-0.2c0-0.1,0-0.2-0.1-0.3c-0.1-0.3-0.2-0.4-0.3-0.6
		c-0.1-0.1-0.1-0.3-0.2-0.4c-0.1-0.1-0.1-0.3-0.2-0.4c-0.1-0.2-0.1-0.3-0.1-0.4c0-0.2,0.1-0.4,0.2-0.6c0-0.1,0-0.2,0.1-0.3
		s0.1-0.2,0.1-0.3s0-0.3-0.1-0.7s-0.2-0.7-0.3-1l-0.3,0.3c-0.2,0.1-0.4,0.3-0.4,0.5c-0.1,0.1-0.3,0.3-0.6,0.6l-0.1-0.3
		c-0.1-0.1-0.1-0.2-0.1-0.5c-0.1-0.1-0.1-0.3-0.1-0.4c-0.1-0.4-0.1-0.7-0.1-0.9s0.1-0.4,0.2-0.7l0.3-0.2c0.3-0.2,0.5-0.5,0.8-0.9
		c0.1-0.3,0.3-0.6,0.7-1.1c-0.2,0.3-0.1,0.2,0.2-0.2c0.1-0.2,0.2-0.4,0.3-0.7c0.2-0.2,0.3-0.3,0.3-0.4c0.1-0.1,0.1-0.3,0.3-0.5
		c0.1-0.2,0.2-0.3,0.3-0.5l-0.3-0.5c-0.2-0.4-0.3-0.6-0.3-0.7l0.3-0.4v-0.2L234.1,226.8z M237.8,224.8c0.1,0,0.2,0,0.4,0.1
		c0.2,0,0.4,0.1,0.7,0.2c-0.1,0,0,0,0.2,0.1v0.2l0.5,0.2l0.2,0.4c0.1,0.1,0.1,0.2,0.2,0.3c0,0.2,0,0.3,0.1,0.4
		c0.1,0.2,0.1,0.3,0.1,0.4l-0.1,0.3c-0.1,0.1-0.1,0.3-0.3,0.6c-0.1,0.2-0.1,0.2-0.1,0.1c-0.1,0.1-0.1,0.4-0.3,0.8
		c-0.1,0.1-0.1,0.3-0.3,0.5c-0.1,0.1-0.1,0.1-0.1,0.2c-0.2,0.2-0.3,0.5-0.5,0.9l0.6-0.3c0.1,0,0.1,0,0.3-0.1
		c0.3-0.2,0.5-0.3,0.8-0.3c0.3-0.1,0.6-0.2,0.9-0.3c0.3-0.2,0.6-0.3,0.7-0.2c0.1,0,0.3,0,0.4,0.1c0.2,0,0.4,0.2,0.7,0.6
		c0.3,0.3,0.4,0.5,0.5,0.7c0.1,0.1,0.1,0.2,0.1,0.3l-0.2,0.6c-0.1,0.1-0.1,0.3-0.3,0.5c-0.1,0.1-0.1,0.1-0.1,0.2
		c-0.1,0.1-0.1,0.1-0.3,0.2c-0.1,0.1-0.2,0.1-0.3,0.2c-0.2,0.1-0.3,0.2-0.2,0.1c-0.1,0.1-0.3,0.1-0.5,0.1c-0.2-0.1-0.4,0-0.7,0.2
		c-0.1,0-0.1,0-0.3,0.1c-0.1,0.1-0.1,0.1-0.2,0.1h-0.1c-0.2-0.1-0.4-0.1-0.7-0.2l0.2,1.1l0.5-0.4h0.1c0.1,0,0.2,0,0.3,0.1
		c0.2,0,0.4,0.1,0.7,0.2c0.3,0,0.5,0.1,0.7,0.3c0.2,0.1,0.4,0.4,0.8,0.9v0.8l-0.2,0.1c-0.1,0-0.3,0.1-0.6,0.2c-0.1,0-0.3,0-0.4,0.1
		h-0.2h-0.2c-0.3-0.1-0.6-0.1-1-0.2l-0.3,0.2l-0.3-0.4v0.6c0,0.4,0,0.8-0.1,1.1c-0.1,0.1-0.1,0.3-0.1,0.5c0,0.3,0,0.4-0.1,0.6
		c-0.1,0.4-0.2,0.7-0.3,0.9l-0.3-0.2c-0.2-0.2-0.3-0.4-0.4-0.6c-0.1-0.3-0.3-0.5-0.4-0.7c-0.1-0.1-0.2-0.2-0.3-0.5
		c-0.2-0.2-0.3-0.4-0.4-0.6l1-0.2l0.1-0.5c0.1-0.4,0.1-0.8,0.1-1.2c0-0.6-0.1-1.4-0.2-2.3l-0.3,0.2c-0.2,0.1-0.5,0.3-0.8,0.5
		c-0.1,0.1-0.1,0.1-0.3,0.2c-0.3,0.1-0.5,0.3-0.7,0.5H236l0.7,1.1l0.3-0.2c0.2-0.2,0.4-0.3,0.7-0.2l-0.4,0.4
		c-0.2,0.1-0.4,0.4-0.6,0.8l0.3,0.2l-0.3,0.4c-0.2,0.2-0.3,0.5-0.5,0.9c-0.2,0.3-0.5,0.8-0.8,1.4h-0.2l-0.2-0.5
		c-0.1-0.3-0.1-0.3-0.1-0.3c-0.1-0.4-0.1-0.8-0.3-1.3l0.1-0.2c0.1-0.1,0.1-0.2,0.1-0.3s0-0.2,0.1-0.3c0.1-0.2,0.2-0.8,0.4-1.9
		l0.3,0.2l0.2-0.2l-0.1-0.2c-0.1-0.1-0.1-0.2-0.1-0.3s0-0.1-0.1-0.2c-0.1-0.1-0.1-0.4-0.1-0.9l-0.3-0.6V232l0.4-0.4
		c0.3-0.3,0.5-0.6,0.8-0.9c0.2-0.4,0.4-0.8,0.6-1.1c0.2-0.4,0.3-0.8,0.4-1.1c0.1-0.2,0.1-0.4,0.3-0.7c0.1-0.2,0.1-0.3,0.1-0.4
		l0.2-0.6c0-0.1-0.1-0.3-0.2-0.5c-0.1-0.3-0.3-0.5-0.8-0.8l-0.5,0.4l0.2-0.3C237.1,225.3,237.3,225.1,237.8,224.8L237.8,224.8z
		 M241,230.7l-0.3,0.3c-0.1,0.1-0.3,0.2-0.6,0.4c0.1-0.1,0,0-0.4,0.3v0.2c0,0.1-0.1,0.3-0.2,0.6h0.4c0.3,0,0.5-0.1,0.8-0.2
		c0.2-0.2,0.4-0.4,0.6-0.6c0.1-0.2,0.4-0.5,0.8-0.9H241V230.7z M240,234.3l-0.2,1.5l0.7-0.2l0.2-0.4l0.3-0.2L240,234.3z"/>
	<path class="st1" d="M263.2,228.1l0.1,0.3c0.1,0.1,0.1,0.2,0.1,0.3s0,0.2,0.1,0.3s0.1,0.3,0.1,0.5c0,0.1,0,0.3-0.1,0.6
		c-0.1,0.1-0.1,0.2-0.1,0.4c-0.1,0.2-0.1,0.3-0.1,0.5c0,0.1,0,0.2-0.1,0.3c0,0.1-0.1,0.3-0.3,0.9c-0.2,0.4-0.3,0.7-0.3,0.9l0.3-0.1
		c0.3,0,0.5,0,0.7,0c0.2-0.1,0.4,0,0.6,0.2c0.2,0.1,0.4,0.2,0.7,0.4c0.2,0.1,0.4,0.2,0.6,0.4c0.1,0.1,0.2,0.1,0.3,0.2
		c0.1,0.1,0.2,0.2,0.3,0.3c0.3,0.2,0.4,0.4,0.5,0.6c0.1,0.1,0.1,0.1,0.2,0.2c0,0.1,0,0.2,0.1,0.3s0.1,0.2,0.1,0.4
		c0,0.1,0,0.2-0.1,0.4c-0.1,0.1-0.1,0.1-0.1,0.2c-0.1,0.1-0.1,0.1-0.1,0.2c-0.1,0.1-0.1,0.5-0.3,1c-0.1,0.2-0.1,0.4-0.1,0.8
		c-0.1,0.4-0.1,0.7-0.2,0.9c-0.1,0.4-0.1,0.9-0.3,1.4c0,0.1-0.1,0.3-0.2,0.6s-0.2,0.5-0.2,0.7c-0.1,0.4-0.3,0.7-0.4,0.9
		c-0.2,0.1-0.3,0.4-0.5,0.8c-0.2,0.3-0.3,0.5-0.5,0.9c-0.1,0.1-0.1,0.1-0.2,0.2c-0.2,0.3-0.4,0.4-0.6,0.6H263l-0.3-0.2
		c-0.2-0.3-0.4-0.6-0.7-0.8c-0.2-0.3-0.5-0.5-0.8-0.7c-0.2-0.2-0.4-0.5-0.7-0.9l-0.5-0.2l0.3-0.4l-0.3-0.3c-0.2-0.2-0.3-0.4-0.3-0.6
		c-0.1-0.1-0.1-0.2-0.1-0.4c0-0.1,0-0.2-0.1-0.3s-0.1-0.3-0.1-0.5c0-0.1,0-0.3-0.1-0.4c-0.1-0.4-0.1-0.6-0.1-0.8
		c0-0.3,0-0.5,0.1-0.7c0-0.1,0-0.2,0.1-0.3c0.1-0.3,0.1-0.5,0.2-0.7l0.2-0.1c0.1-0.1,0.3-0.2,0.4-0.2c0.2-0.1,0.4-0.1,0.6,0
		c0.2,0,0.4,0.1,0.6,0.2c0.2,0,0.3,0.1,0.5,0.3c0.2,0.1,0.3,0.2,0.3,0.4c0.1,0.1,0.1,0.1,0.1,0.2c0.1,0.1,0.1,0.1,0.1,0.2
		c0.1,0.1,0.1,0.3,0.1,0.5c0,0.1,0,0.3-0.1,0.5c-0.1,0.1-0.1,0.2-0.3,0.4c-0.1,0.1-0.3,0.2-0.4,0.3c-0.1,0-0.1,0-0.3,0.1h-0.1
		l-0.2-0.1c-0.2-0.1-0.4-0.2-0.6-0.3l-0.2-0.4h-0.5l0.3-0.2c0.2-0.2,0.3-0.3,0.4-0.4v-0.4l-0.7,0.2l-0.1,0.3
		c-0.1,0.2-0.1,0.3-0.1,0.4l0.2,0.8c0.1,0.4,0.3,0.8,0.7,1.2c0.2,0.2,0.4,0.4,0.8,0.7c0.1,0.1,0.1,0.1,0.2,0.1
		c0.3,0.1,0.6,0.2,1.1,0.2l0.2,0.2l0.3-0.5c0.2-0.4,0.4-0.7,0.6-1c0.2-0.4,0.3-0.8,0.4-1.1c0.1-0.4,0.2-0.7,0.3-1
		c0.1-0.1,0.1-0.4,0.1-0.8c0.1-0.3,0.1-0.6,0.1-0.8c0.1-0.8,0.1-1.2,0.1-1.3c0-0.2-0.1-0.5-0.3-1h-0.6c-0.4-0.1-0.7,0-1,0.2
		c-0.3,0.1-0.6,0.3-0.9,0.5s-0.6,0.4-0.9,0.7c-0.1,0.1-0.2,0.2-0.3,0.3c-0.3,0.3-0.5,0.5-0.8,0.7l-0.3-0.4l0.1-0.3
		c0.1-0.3,0.1-0.5,0-0.7c-0.1-0.3-0.1-0.6-0.1-0.8c0-0.3,0.1-0.5,0.2-0.8l0.9-0.5l0.2-0.4c0.1-0.2,0.1-0.4,0.1-0.7l0.2-0.3
		c0.1-0.2,0.1-0.3,0.1-0.2c0.1-0.1,0.1-0.3,0.3-0.7c0.1-0.4,0.3-0.7,0.4-1c0.2-0.3,0.3-0.9,0.3-1.8l-0.3-0.4h-0.3l-0.1,0.2
		c-0.1,0.1-0.1,0.4-0.3,0.8c0,0.1-0.1,0.3-0.2,0.6s-0.2,0.4-0.2,0.6c-0.1,0.4-0.3,0.8-0.4,1.1c-0.1,0.1-0.1,0.3-0.3,0.6
		c-0.2,0.4-0.3,0.7-0.4,0.9s-0.2,0.4-0.3,0.7c-0.2,0.4-0.4,0.9-0.6,1.2l0.1,0.1c0.1,0.1,0.2,0.4,0.3,0.8c0.1,0.1,0.1,0.3,0.1,0.5
		c0.1,0.1,0.1,0.1,0.1,0.2l-0.2,0.6c-0.1,0.3-0.2,0.7-0.2,1.2c0,0.3-0.1,0.7-0.2,1.2c0.1-0.4,0.1-0.3,0,0.3c-0.1,0.5-0.1,0.9-0.3,1
		c-0.1,0.1-0.1,0.2-0.1,0.4c-0.1,0.1-0.1,0.3-0.1,0.4c-0.1,0.1-0.1,0.3-0.1,0.4c0,0.2,0,0.3-0.1,0.5s-0.1,0.4-0.3,0.8
		c-0.1,0.2-0.3,0.4-0.8,0.8l-0.2-0.4h-0.3l-0.2-0.3c-0.1-0.2-0.2-0.4-0.5-0.8c-0.2-0.4-0.4-0.7-0.5-1c-0.1-0.4-0.1-0.7-0.3-1
		c-0.1-0.3-0.1-0.5-0.1-0.9l0.2-0.3c0-0.1,0.1-0.2,0.2-0.4c0.1-0.1,0.2-0.2,0.2-0.3c0.1-0.3,0.3-0.6,0.5-0.9
		c0.1-0.1,0.1-0.3,0.3-0.5c0.2-0.3,0.3-0.4,0.3-0.5c0.1-0.1,0.1-0.2,0.2-0.3c0.2-0.3,0.3-0.5,0.4-0.7l-0.3-0.8l-0.1,0.1
		c-0.1,0-0.1,0.1-0.3,0.4c-0.1,0.1-0.1,0.2-0.2,0.4c-0.1,0.1-0.2,0.2-0.3,0.3c-0.2,0.2-0.3,0.5-0.5,0.9c-0.2,0.3-0.3,0.5-0.4,0.9
		c-0.1,0.2-0.1,0.5-0.3,0.9c-0.1,0.1-0.1,0.4-0.1,0.8c-0.1,0.3-0.1,0.6-0.1,0.8c-0.1,0.6-0.1,0.9-0.1,1.1c0,0.1,0,0.3,0.1,0.5
		s0.1,0.3,0.1,0.4c0.1,0,0,0.2-0.2,0.7h-0.2l-0.3-0.2c-0.1-0.1-0.1-0.1-0.2-0.2c-0.1-0.1-0.1-0.2-0.3-0.3c0-0.1-0.1-0.2-0.2-0.3
		s-0.2-0.2-0.2-0.3s-0.1-0.2-0.2-0.4c-0.1-0.1-0.2-0.2-0.2-0.3c-0.1-0.3-0.1-0.5-0.3-0.7c-0.1-0.1-0.1-0.2-0.1-0.5
		c-0.1-0.3-0.1-0.4-0.1-0.6c-0.1-0.6-0.1-1-0.1-1.3c0-0.4,0-0.9-0.1-1.6c-0.1-0.8-0.1-1.3-0.1-1.5c0-0.4,0-0.6,0.1-0.8
		s0.3-0.4,0.5-0.8c0.1-0.2,0.3-0.4,0.7-0.7c0.1-0.1,0.1-0.1,0.2-0.1c0.3-0.2,0.5-0.4,0.7-0.6c0.2-0.2,0.3-0.4,0.3-0.6
		c0-0.1,0-0.1,0.1-0.2c0.1-0.2,0.1-0.3,0.2-0.5l-0.2-0.4c-0.1-0.3-0.3-0.6-0.7-1.1h0.2c0.1,0,0.4,0,0.8,0.1c0.4,0,0.7,0.1,0.9,0.3
		v0.2l0.3,0.3l0.1,0.1c0.2,0.1,0.4,0.3,0.6,0.6v0.8l0.2,0.2l-0.2,0.2l-0.2,0.1c-0.1,0.1-0.2,0.2-0.3,0.3c-0.1,0.1-0.2,0.1-0.3,0.2
		c-0.1,0.1-0.2,0.2-0.3,0.3c-0.1,0.1-0.2,0.1-0.3,0.2c-0.1,0.1-0.2,0.2-0.3,0.3c-0.1,0-0.1,0-0.3,0.1c-0.2,0.1-0.5,0.2-0.8,0.3
		l-0.2-0.1c-0.1-0.1-0.2-0.1-0.3-0.1v-0.4l-0.2,0.2c-0.2,0.2-0.4,0.4-0.8,0.8v0.1l0.1,0.4c0.1,0.1,0.2,0.4,0.3,0.8
		c0.2,0.3,0.3,0.6,0.3,0.9c0,0.1,0,0.2,0.1,0.4c0.1,0.3,0.1,0.5,0.2,0.7l0.2-0.4c0.1-0.3,0.3-0.6,0.4-0.9c0.1-0.2,0.2-0.4,0.4-0.8
		c0.1-0.1,0.2-0.2,0.3-0.3c0.2-0.4,0.5-0.8,0.9-1.3h0.3c0.2,0,0.4,0,0.7,0.1c0.3,0,0.4,0.1,0.5,0.2c0.1,0,0.3,0.1,0.4,0.3l0.4-0.6
		c0.1-0.1,0.2-0.3,0.3-0.6c0.1-0.3,0.2-0.4,0.3-0.6c0.1-0.1,0.3-0.4,0.4-0.8c0.1-0.3,0.2-0.4,0.3-0.6l0.3-0.9c0-0.1,0.1-0.4,0.3-0.8
		c0.1-0.3,0.3-0.6,0.5-1c-0.1,0.1,0,0,0.1-0.2h-0.2v-0.6l0.2-0.1c0.1-0.1,0.2-0.2,0.3-0.2c0.1-0.1,0.2-0.1,0.3-0.1
		c0.1-0.1,0.2,0,0.4,0.2c0.2,0.1,0.4,0.3,0.7,0.8h1V228.1z M257.4,236.8c-0.1,0.1-0.1,0.2-0.2,0.4c-0.1,0.1-0.1,0.3-0.2,0.4
		c-0.1,0.1-0.1,0.2-0.2,0.3s-0.1,0.4-0.3,0.8c-0.1,0.3-0.1,0.6-0.1,0.9c0.1,0.3,0.2,0.6,0.4,1l0.2-0.4c0-0.1,0.1-0.2,0.2-0.4
		c0.1-0.3,0.1-0.4,0.2-0.6c0.1-0.4,0.1-1.3,0.1-2.7L257.4,236.8z"/>
	<path class="st1" d="M279.8,227.1c0.1,0,0.2,0,0.3,0.1c0.1,0,0.2,0.1,0.3,0.2c0.1,0,0.1,0.1,0.3,0.2c0.1,0.1,0.2,0.1,0.3,0.2
		c0.1,0.1,0.2,0.2,0.3,0.3c0.1,0.1,0.2,0.2,0.3,0.3c0.3,0.1,0.4,0.4,0.5,0.8c0.1,0.3,0.2,0.7,0.2,1s0,0.7-0.1,1
		c-0.1,0.1-0.1,0.3-0.1,0.5c-0.1,0.1-0.1,0.3-0.1,0.4l0.3-0.3c0.1-0.1,0.3-0.2,0.4-0.5c0.1-0.1,0.1-0.1,0.2-0.2
		c0.2-0.3,0.3-0.6,0.4-0.8c0.1-0.3,0.3-0.6,0.5-0.9c0.2-0.4,0.4-0.6,0.6-0.8s0.3-0.3,0.5-0.5s0.3-0.3,0.5-0.3
		c0.2-0.1,0.3-0.1,0.4-0.1s0.3,0,0.4,0.1c0.2,0,0.4,0.1,0.6,0.3c0.2,0.1,0.4,0.2,0.6,0.4c0.2,0.1,0.3,0.3,0.4,0.5
		c0.1,0.1,0.2,0.4,0.3,0.8c0.1,0.3,0.1,0.5,0.1,0.9c0,0.2,0,0.4-0.1,0.7c-0.1,0.1-0.1,0.1-0.1,0.2c0,0.1,0,0.2-0.1,0.3
		s-0.1,0.2-0.2,0.3s-0.1,0.2-0.2,0.3c-0.2,0.2-0.3,0.4-0.4,0.7c-0.1,0.1-0.1,0.2-0.3,0.4c-0.2,0.3-0.3,0.5-0.4,0.7l0.3,0.3
		c0.1,0.1,0.3,0.4,0.4,0.9l0.4,0.1c0.3,0,0.5,0.1,0.7,0.2c0.2,0,0.4,0.1,0.6,0.3c0.2,0.1,0.4,0.2,0.6,0.4c0.2,0.1,0.3,0.3,0.4,0.6
		c0.1,0.2,0.2,0.5,0.3,0.9c0.1,0.3,0.1,0.5,0.1,0.7c0,0.1,0,0.2-0.1,0.4c-0.1,0.1-0.2,0.2-0.3,0.4c-0.2,0.1-0.4,0.2-0.6,0.3
		c-0.1,0-0.2,0-0.3,0c-0.2,0.1-0.3,0.1-0.5,0.1v0.4c0,0.2,0,0.7-0.1,1.4c0,0.2,0,0.4-0.1,0.7c0,0.2,0,0.4-0.1,0.8
		c-0.1,0.2-0.1,0.5-0.3,0.9c-0.1,0.3-0.3,0.5-0.4,0.9c-0.2,0.2-0.3,0.3-0.5,0.5c-0.1,0-0.1,0-0.3,0.1c-0.2,0.1-0.3,0.3-0.5,0.4h-0.4
		c-0.3,0-0.8,0.1-1.4,0.2L284,246c-0.1,0-0.1,0-0.2-0.1c-0.2-0.1-0.3-0.2-0.4-0.3c-0.2-0.1-0.5-0.3-0.8-0.6v-1l-0.2-0.2
		c-0.1-0.2-0.3-0.4-0.4-0.6c-0.2-0.3-0.2-0.4-0.1-0.2c-0.1-0.2-0.2-0.3-0.3-0.3c-0.1-0.1-0.1-0.2-0.3-0.4c-0.1-0.2-0.2-0.3-0.2-0.5
		l-0.7-0.2v-0.2h-0.3c-0.1,0-0.2,0-0.4-0.1c0.1,0.1,0.1,0-0.2-0.1l-0.1,0.6c0,0.1,0,0.3-0.1,0.4c0,0.3,0,0.4-0.1,0.5
		s-0.1,0.4-0.3,0.8c0,0.1-0.1,0.2-0.2,0.5s-0.2,0.5-0.3,0.8l-0.2,0.1c-0.1,0-0.2,0-0.3,0l-0.3-0.2c-0.2-0.2-0.5-0.5-0.8-0.9
		c-0.2-0.4-0.5-0.7-0.8-1c-0.2-0.3-0.4-0.6-0.8-1H275l-0.3-0.4c-0.1-0.1-0.1-0.3-0.3-0.6c-0.1-0.1-0.1-0.1-0.1-0.2
		c-0.1-0.3-0.1-0.5-0.1-0.6c0-0.2,0-0.4,0.1-0.6c0-0.1,0-0.2,0.1-0.3c0-0.1,0-0.2,0.1-0.3c0.1-0.2,0.2-0.4,0.3-0.7
		c0.1-0.3,0.4-0.8,0.9-1.4l-0.2-0.3c-0.1-0.1-0.1-0.2-0.1-0.4c-0.1-0.1-0.1-0.2-0.2-0.3c0-0.1,0-0.2-0.1-0.4c0-0.2,0-0.3-0.1-0.4
		c-0.1-0.3-0.1-0.5-0.1-0.6c0-0.2,0-0.4,0.1-0.7c0-0.1,0-0.2,0.1-0.3c0-0.2,0-0.3,0.1-0.4l0.1-0.3c0-0.1,0.1-0.3,0.2-0.5
		c0-0.1,0.1-0.3,0.2-0.5c0.1-0.1,0.2-0.3,0.2-0.4c0.1-0.2,0.2-0.4,0.3-0.7c0.1-0.2,0.1-0.3,0.2-0.4l0.1,0.4c0.1,0.1,0.1,0.2,0.1,0.5
		c0.1,0.2,0.1,0.3,0.1,0.5c0,0.1,0,0.3,0.1,0.4c0,0.3,0,0.4,0.1,0.5c0.1,0.2,0.2,0.5,0.3,0.9c0.1,0.4,0.2,0.7,0.3,0.9
		c0,0.1,0,0.2,0.1,0.3c0.1,0.2,0.1,0.3,0.2,0.5l0.2-0.2c0.1-0.2,0.3-0.3,0.5-0.4c0.1-0.1,0.3-0.2,0.4-0.3c0.2-0.1,0.3-0.2,0.4-0.3
		l0.1-0.5c0.1-0.4,0.1-0.6,0-0.8c-0.1-0.3-0.1-0.6-0.3-0.9c-0.1-0.2-0.1-0.5-0.2-0.9c-0.1-0.2-0.2-0.3-0.2-0.5
		c-0.1-0.4-0.1-0.9-0.3-1.2l-0.1-0.7c0-0.1,0-0.2,0.1-0.4s0.2-0.4,0.3-0.6c0.1-0.2,0.3-0.4,0.5-0.7h0.6V227.1z M277,239.1
		c-0.1,0.1-0.1,0.2-0.1,0.4c-0.1,0.2-0.1,0.3-0.1,0.4c-0.1,0.1-0.1,0.2-0.1,0.3s0,0.2-0.1,0.3c-0.1,0-0.1,0.2-0.1,0.6l0.2,0.3
		c0.1,0.2,0.3,0.5,0.8,0.9l0.1-0.1c0.1-0.1,0.3-0.2,0.6-0.3l0.1-0.2c0.1-0.1,0.1-0.2,0.1-0.5c0.1-0.3,0.1-0.5,0.2-0.7l-0.2-0.2
		c-0.1-0.2-0.3-0.4-0.4-0.6c-0.1-0.3-0.4-0.6-0.9-0.9L277,239.1z M279.1,235.5l-0.1,0.3c-0.1,0.1-0.2,0.4-0.3,0.8
		c-0.2,0.3-0.3,0.4-0.3,0.6l0.1,0.4c0.1,0.3,0.3,0.5,0.6,0.9v-0.9l0.2-0.2V237c0-0.2,0-0.3,0.1-0.5c0.1-0.1,0.1-0.2,0.1-0.5
		c0.1-0.3,0.1-0.5,0.2-0.8L279.1,235.5z M279.5,227.5c-0.1,0.1-0.1,0.2-0.3,0.4c-0.1,0.1-0.1,0.3-0.3,0.5c-0.1,0.1-0.1,0.3-0.1,0.5
		c0,0.1,0,0.3,0.1,0.6c0.1,0.1,0.1,0.2,0.1,0.4c0.1,0.2,0.1,0.3,0.1,0.5c0.1,0.3,0.2,0.7,0.3,1c0.1,0.1,0.1,0.3,0.3,0.7
		c0.1,0.3,0.2,0.5,0.3,0.7l0.1-0.4c0-0.1,0-0.2,0.1-0.3c0-0.2,0-0.3,0.1-0.4c0.1-0.2,0.1-0.3,0.1-0.5s0-0.4,0.1-0.7
		c0-0.1,0-0.3,0.1-0.5c0-0.2,0-0.3,0.1-0.4c0.1-0.1,0.1-0.6,0.1-1.3l-0.2-0.3c-0.1-0.2-0.3-0.4-0.8-0.7L279.5,227.5z M286.4,229.4
		c-0.2,0.1-0.3,0.3-0.4,0.5c-0.1,0.1-0.1,0.2-0.3,0.3c-0.1,0.1-0.1,0.1-0.2,0.2c-0.1,0-0.4,0.3-0.8,0.8l-0.4,0.1
		c-0.2,0-0.5,0.1-0.8,0.2c-0.2,0-0.4,0.1-0.5,0.2c-0.1,0-0.1,0.1-0.3,0.2c-0.1,0.1-0.2,0.1-0.3,0.2c-0.2,0.1-0.4,0.3-0.5,0.7
		l-0.3,0.1l-0.2,0.3c-0.1,0.2-0.1,0.5-0.3,1c-0.1,0.4-0.3,0.8-0.4,1.3c-0.1,0.1-0.1,0.3-0.3,0.7c-0.1,0.1-0.1,0.2-0.1,0.3
		c-0.1,0.2-0.1,0.4-0.1,0.6c0,0.1,0.1,0.4,0.3,0.8c-0.1-0.1,0,0,0.1,0.3l-0.2,0.4l0.1,0.3c0.1,0.2,0.1,0.3,0.1,0.4l0.1,0.4l0.3-0.2
		l0.1-0.1c0.1,0,0.1-0.1,0.3-0.3c0.1-0.3,0.3-0.5,0.7-0.7c0.3-0.3,0.6-0.5,0.8-0.7c0.3-0.2,0.5-0.4,0.8-0.6c0.3-0.3,0.6-0.5,1.1-0.7
		l-0.5-0.4v-0.2c0-0.2,0-0.4-0.1-0.6c-0.1-0.3-0.1-0.5-0.1-0.6c0-0.2,0-0.4,0.1-0.6c0.1-0.3,0.2-0.6,0.4-0.8
		c0.2-0.3,0.4-0.5,0.7-0.7c0.3-0.3,0.4-0.5,0.5-0.7c0-0.1,0.1-0.3,0.2-0.5c0.1-0.1,0.2-0.3,0.2-0.4c0.1-0.4,0.2-1,0.3-1.8
		L286.4,229.4z M286.3,237.6l-0.2,0.4l-0.4,0.2c-0.3,0.1-0.6,0.3-0.8,0.5c-0.2,0.2-0.5,0.3-0.8,0.4c-0.2,0-0.5,0.1-0.8,0.3
		c-0.3,0.1-0.6,0.2-0.8,0.3c-0.2,0-0.4,0.1-0.6,0.4c-0.1,0.1-0.1,0.1-0.3,0.2c-0.1,0.1-0.2,0.2-0.3,0.3v0.3c0.1,0.1,0.1,0.3,0.1,0.5
		c0,0.1,0,0.2-0.1,0.5l0.3,0.3c0.2,0.2,0.4,0.4,0.8,0.8c0.1,0.1,0.3,0.2,0.4,0.3c0.4,0.3,0.8,0.5,1.1,0.7l0.5-0.1
		c0.3-0.1,0.6-0.2,0.9-0.3c0.1-0.1,0.1-0.1,0.3-0.2c0.2-0.1,0.4-0.2,0.4-0.3c0.2-0.2,0.3-0.4,0.4-0.6c0.1-0.1,0.1-0.2,0.2-0.4
		c0-0.1,0-0.2,0.1-0.3s0.1-0.3,0.1-0.5c0-0.1,0-0.3,0.1-0.4c0.1-0.2,0.1-0.7,0.1-1.6h-0.3c-0.1,0-0.2,0-0.3-0.1c-0.1,0-0.2,0-0.3,0
		c-0.1-0.1-0.4-0.1-0.8-0.1l0.5-0.1c0.3-0.1,0.7-0.2,1-0.5l-0.2-0.6L286.3,237.6z"/>
	<path class="st1" d="M305.4,225l0.5,0.6c0.3,0.4,0.5,0.7,0.6,0.9s0.1,0.4,0.1,0.6c0,0.1,0,0.2-0.1,0.5c-0.1,0.4-0.2,0.7-0.3,1
		l1-0.4l0.5,0.2l0.3-0.2l0.3,0.1c0.2-0.1,0.4,0.1,0.6,0.5h0.2l0.1,0.2c0.1,0,0.1,0.2,0.1,0.6l-0.3,0.6l-0.3,0.1
		c-0.1,0-0.3,0.1-0.6,0.2c-0.1,0.1-0.2,0.1-0.3,0.2c-0.4,0.2-0.7,0.4-0.9,0.6c-0.1,0.1-0.2,0.2-0.3,0.3c-0.1,0.1-0.2,0.2-0.3,0.3
		c-0.2,0.2-0.4,0.3-0.6,0.4c-0.2,0-0.3,0.2-0.5,0.5c-0.2,0.2-0.3,0.4-0.5,0.6c-0.2,0.1-0.3,0.3-0.5,0.6c-0.2,0.2-0.3,0.5-0.5,1
		c-0.1,0.1-0.1,0.3-0.3,0.6c-0.1,0.4-0.2,0.7-0.3,0.9c-0.2,0.4-0.4,0.9-0.6,1.2s-0.5,0.8-0.8,1.4l0.4-0.2c0.3-0.2,0.5-0.4,0.8-0.6
		c0.1-0.1,0.2-0.3,0.3-0.5c0.1-0.1,0.2-0.3,0.3-0.4c0.2-0.4,0.4-0.6,0.6-0.8c0.2-0.3,0.3-0.4,0.4-0.4c0.1-0.1,0.3-0.3,0.6-0.5
		c0.3-0.3,0.5-0.6,0.8-0.8c0.2-0.3,0.4-0.5,0.7-0.5c0.3-0.1,0.4-0.1,0.5-0.1s0.3,0,0.4,0.1c0.2,0,0.3,0.1,0.4,0.2
		c0.1,0,0.3,0.1,0.4,0.4c0.2,0.2,0.4,0.5,0.6,1l-0.1,0.4c-0.1,0.1-0.1,0.2-0.1,0.3c-0.1,0.2-0.1,0.3-0.2,0.4l-0.1,0.1
		c-0.1,0.1-0.1,0.4-0.3,0.9c-0.1,0.2-0.1,0.5-0.2,0.9c-0.1,0.2-0.2,0.3-0.2,0.5c0,0.1,0,0.2-0.1,0.4c-0.2,0.5-0.3,1.1-0.4,1.7l1,0.9
		h0.1c0.1-0.1,0.3,0,0.5,0.2c0.3,0.1,0.5,0.3,0.8,0.5s0.5,0.3,0.8,0.4c0.3,0,0.5,0.1,0.8,0.2c0.2,0,0.5,0.1,0.8,0.3
		c0.3,0.1,0.6,0.2,0.8,0.4c0.2,0.1,0.3,0.3,0.5,0.5c0.2,0.1,0.3,0.6,0.4,1.4l-0.8,0.4l-0.3-0.4l-0.5,0.4l-0.5-0.2
		c-0.3-0.1-0.7-0.2-1.2-0.3c-0.1,0-0.3,0-0.5-0.1c-0.1,0-0.3,0-0.4-0.1c-0.2-0.1-0.3-0.2-0.5-0.3s-0.4-0.3-0.6-0.6
		c-0.2-0.2-0.5-0.4-0.8-0.6c-0.3-0.3-0.5-0.5-0.7-0.6c-0.1-0.1-0.3-0.3-0.6-0.5c0.1,0.1,0.1,0-0.2-0.1l-0.3,0.3
		c-0.2,0.2-0.5,0.4-0.8,0.6c-0.1,0.1-0.3,0.1-0.4,0.2c-0.2,0.1-0.3,0.2-0.4,0.3s-0.2,0.1-0.3,0.1c-0.2,0-0.3,0-0.4,0
		c-0.2,0.1-0.4,0.1-0.4,0.1c-0.1,0-0.1,0-0.3-0.1c-0.1,0-0.2,0-0.5,0c-0.2-0.1-0.5-0.2-0.8-0.3c-0.1-0.1-0.2-0.2-0.3-0.3
		c-0.2-0.1-0.3-0.1-0.4-0.2c-0.2-0.2-0.4-0.4-0.7-0.7l-0.3,0.7c-0.2,0.4-0.3,0.7-0.4,0.9c0,0.1-0.1,0.3-0.2,0.5
		c-0.1,0.1-0.2,0.3-0.2,0.4c-0.1,0.1-0.2,0.4-0.3,0.9c0.2-0.3,0.1-0.3-0.2,0.2l-0.1-0.8c0-0.1,0-0.3-0.1-0.6c0-0.3,0-0.4-0.1-0.6
		c-0.1-0.1-0.1-0.3-0.1-0.4c0-0.2,0-0.3,0.1-0.5c0.1-0.1,0.1-0.2,0.1-0.1c0.1-0.3,0.3-0.7,0.5-1.1l-0.2-0.6l0.3,0.2l0.2-0.5
		c0.1-0.2,0.1-0.4,0.3-0.6c0.1-0.1,0.1-0.1,0.1-0.2c0.1-0.3,0.2-0.5,0.3-0.9l-0.6,0.1c-0.4,0-0.6,0.1-0.8,0.2h-0.1
		c-0.2,0.1-0.3,0.1-0.4,0.1l0.6-0.7c0.4-0.5,0.7-0.8,0.9-0.8c0.3-0.1,0.6-0.2,0.8-0.3l0.2-0.5c0.1-0.2,0.1-0.4,0.3-0.8
		c-0.1,0.1,0,0.1,0.1-0.1c0-0.1,0.1-0.3,0.2-0.5c0.1-0.1,0.2-0.3,0.2-0.4c0.1-0.3,0.2-0.7,0.3-1.2l-0.3,0.2l-0.3-0.1
		c-0.2-0.1-0.4-0.2-0.7-0.4c-0.2-0.2-0.4-0.4-0.6-0.6c-0.2-0.2-0.3-0.4-0.5-0.8c-0.1-0.1-0.1-0.3-0.3-0.5c-0.1-0.3-0.2-0.6-0.3-0.8
		h0.1c0.1,0,0.3,0,0.5,0.1c0.1,0,0.3,0,0.4,0.1h0.1h0.1c0.1-0.1,0.2-0.1,0.3-0.1c0.2-0.1,0.5-0.2,0.9-0.4s0.8-0.4,1-0.6
		c0.3-0.2,0.5-0.4,0.8-0.6c0.1,0,0.1,0,0.2-0.1c0.2-0.2,0.4-0.3,0.7-0.4l0.3-0.6c0.1-0.1,0.1-0.3,0.3-0.6c0.1-0.1,0.1-0.2,0.1-0.3
		c0.1-0.1,0.1-0.2,0.2-0.4c0.1-0.3,0.1-0.5,0.2-0.7c0.1-0.1,0.1-0.3,0.2-0.6c0.2-0.5,0.3-0.9,0.4-1.3l-0.7,0.2l-0.3,0.6l0.3,0.6
		l-0.3-0.2c-0.2-0.2-0.3-0.3-0.3-0.4c-0.1-0.1-0.1-0.3-0.1-0.6l0.2-0.3c0.1-0.3,0.3-0.5,0.4-0.7c0.2-0.3,0.4-0.5,0.8-0.8h0.1V225z
		 M301.6,240.8c-0.2,0.2-0.5,0.5-0.8,0.9c-0.1,0.1-0.3,0.4-0.6,0.8c-0.2,0.3-0.3,0.5-0.4,0.7l0.4,0.2c0.3,0.1,0.5,0.2,0.8,0.3
		c0.2,0,0.5,0,0.8,0c0.3-0.1,0.4-0.2,0.2-0.1c0.2-0.1,0.4-0.1,0.7-0.1c0.2-0.1,0.3-0.2,0.2-0.1c0.1-0.1,0.3-0.1,0.4-0.1
		c0.2-0.1,0.3-0.2,0.5-0.3c0.1-0.1,0.1-0.2,0.3-0.3c0.1-0.1,0.2-0.1,0.3-0.2c0.2-0.3,0.4-0.5,0.6-0.9l-0.4-0.3
		c-0.1-0.1-0.3-0.2-0.4-0.3c-0.2-0.1-0.3-0.2-0.4-0.3c-0.2-0.2-0.8-0.3-1.6-0.3L301.6,240.8z M306.2,236.6c-0.2,0.1-0.4,0.2-0.7,0.5
		c-0.1,0.1-0.2,0.1-0.3,0.2c-0.2,0.1-0.5,0.4-0.8,0.8c-0.2,0.2-0.6,0.5-1,1l0.6,0.2c0.4,0.1,0.7,0.2,0.8,0.4
		c0.2,0.1,0.5,0.3,0.8,0.4l0.3-0.6v-0.1c0-0.1,0-0.2,0.1-0.3c0.1-0.2,0.2-0.4,0.3-0.8c0-0.1,0-0.2,0.1-0.4c0.2-0.6,0.3-1.1,0.4-1.7
		L306.2,236.6z"/>
	<path class="st1" d="M330.5,228.4c0.1,0,0.1,0,0.2,0.1c0.1,0,0.2,0,0.3,0.1c0.3,0,0.4,0.1,0.5,0.3c0.1,0.1,0.3,0.2,0.4,0.3
		c0.2,0,0.3,0.1,0.5,0.3c0.2,0.1,0.3,0.3,0.4,0.5c0.1,0.1,0.1,0.2,0.2,0.3c0.2,0.1,0.3,0.3,0.3,0.4v0.2l-0.2,0.3
		c-0.1,0.1-0.1,0.2-0.3,0.3c-0.1,0.1-0.1,0.1-0.2,0.2c-0.2,0.1-0.5,0.3-0.8,0.6l-0.1,0.4c-0.1,0.1-0.1,0.2-0.1,0.3
		c-0.1,0.2-0.1,0.3-0.2,0.4c0,0.1-0.1,0.2-0.2,0.3c-0.2,0.3-0.3,0.6-0.5,0.9l0.1,0.3c0.1,0.1,0.1,0.4,0.1,0.9l-0.7,0.1
		c-0.4,0-0.8,0.1-1.3,0.4c-0.2,0.1-0.4,0.2-0.6,0.3s-0.4,0.2-0.6,0.3s-0.4,0.2-0.8,0.3c-0.1,0.1-0.2,0.1-0.3,0.1
		c-0.1,0-0.2,0-0.3,0.1c-0.1,0-0.2,0-0.3,0l-0.1,0.2c-0.1,0.1-0.1,0.1-0.1,0.2c-0.1,0.1-0.1,0.2-0.1,0.3c-0.1,0.1-0.1,0.4-0.3,0.8
		c-0.1,0.3-0.1,0.6-0.3,0.9c-0.1,0.2-0.1,0.5-0.1,0.9l0.2,0.3c0.1,0.1,0.2,0.3,0.4,0.4c-0.2-0.1-0.1-0.1,0.1,0.1
		c0.1,0.1,0.2,0.1,0.3,0.1c0.1,0.1,0.2,0.1,0.3,0.2c0.1,0,0.3,0,0.6,0.1c0.2,0.1,0.4,0.1,0.6,0.1c0.6,0,1,0.1,1.3,0.2
		c0.1,0,0.3,0,0.4,0.1c0.1,0,0.2,0,0.3,0c0.1,0,0.3,0,0.6-0.1c-0.2,0.1-0.1,0,0.3-0.1c0.4-0.2,0.9-0.3,1.3-0.3
		c0.4-0.1,0.8-0.1,0.9-0.1c0.2,0,0.4-0.1,0.8-0.3c0.1-0.1,0.1-0.1,0.3-0.2c0.2-0.1,0.3-0.2,0.5-0.2c0.2-0.1,0.4-0.2,0.6-0.4
		c0.3-0.3,0.4-0.5,0.5-0.7c0.1-0.1,0.1-0.3,0.3-0.5c0.1-0.2,0.2-0.3,0.3-0.5v-0.4h0.3v1.3l0.3,0.6v0.1l-0.2,0.6
		c-0.1,0.3-0.1,0.3-0.1,0.2c-0.1,0.1-0.1,0.3-0.1,0.5c0,0.1,0,0.2,0.1,0.4c0.1,0.3,0.2,0.5,0.3,0.8l-0.2,0.2
		c-0.1,0.1-0.3,0.2-0.6,0.3c-0.1,0-0.4,0-0.8,0.1c0.3-0.1,0.2,0-0.3,0.1c-0.1,0-0.3,0-0.6,0c-1.2,0.1-2.2,0.1-3.2,0.1
		c-2.1,0-3.4-0.1-3.9-0.2c-0.2-0.1-0.5-0.2-0.8-0.3c-0.2-0.1-0.4-0.1-0.4-0.1c-0.1-0.1-0.1-0.1-0.3-0.2c-0.2-0.1-0.4-0.2-0.4-0.3
		c-0.2-0.2-0.4-0.3-0.6-0.5l-0.2-0.5c-0.1-0.4-0.1-0.7-0.3-0.9c-0.1-0.4-0.1-0.7-0.1-0.9c0-0.3,0-0.6,0.1-0.8
		c0.1-0.1,0.1-0.3,0.1-0.5c0.1-0.2,0.1-0.3,0.1-0.5c0.1-0.1,0.1-0.3,0.1-0.6s0-0.4,0.1-0.6c0.1-0.4,0.2-0.7,0.3-1
		c0-0.1,0-0.2,0.1-0.3c0.1-0.3,0.1-0.5,0.1-0.8l-0.7-0.8v-0.4l0.5-0.4l0.2,0.1h0.1c0.2,0.1,0.4,0.1,0.6,0.1l0.2,0.5
		c0.1,0.3,0.2,0.5,0.4,0.8l0.3-0.3c0.3-0.2,0.4-0.4,0.5-0.6c0.1-0.3,0.3-0.5,0.5-0.8l-0.2-0.6l-0.5-0.4l-0.5,0.4l-0.1-0.1
		c-0.1-0.1-0.2-0.2-0.5-0.2c-0.2-0.1-0.4-0.1-0.5-0.1s-0.1,0-0.3,0.1c-0.2,0.1-0.3,0.2-0.4,0.4c-0.2,0.2-0.3,0.4-0.4,0.6
		c0,0.1,0,0.1-0.1,0.2c-0.1,0-0.1,0.2-0.3,0.6c-0.1,0.3-0.1,0.5-0.3,0.7c-0.1,0.1-0.1,0.2-0.1,0.4c-0.1,0.1-0.1,0.2-0.1,0.3
		s0,0.2-0.1,0.3c0,0.2,0,0.3-0.1,0.4c-0.1,0.1-0.2,0.2-0.3,0.4c-0.1,0.1-0.2,0.1-0.3,0.2c-0.1,0.1-0.2,0.2-0.3,0.3
		c-0.2,0.2-0.4,0.3-0.6,0.4c-0.2,0-0.4,0.1-0.6,0.3l-0.2,1.5h-0.2l-0.7-0.6h-0.2l-0.3-0.5c-0.2-0.4-0.3-0.7-0.3-0.9
		c-0.1-0.4-0.1-0.7-0.3-0.9c-0.1-0.4-0.1-0.8-0.3-1.1c-0.1-0.5-0.1-0.9-0.3-1c-0.1-0.3-0.1-0.5-0.3-0.7c0-0.1,0-0.2-0.1-0.4
		c-0.1-0.3-0.1-0.5-0.2-0.7l0.3,0.1c0.1,0,0.3,0,0.6,0.1c0.2,0.1,0.3,0.1,0.4,0.2l0.3-0.2c0.2-0.2,0.5-0.4,0.8-0.6
		c0.3-0.3,0.7-0.5,1-0.7c0.4-0.2,0.7-0.5,0.8-0.9l0.5-0.2l0.2,0.1c0.1,0,0.3,0.1,0.6,0.4c0.3,0.2,0.5,0.4,0.7,0.6
		c0.1,0.1,0.3,0.4,0.4,0.9l0.1-0.1c0.1-0.1,0.1-0.1,0.3-0.2c0.1-0.1,0.2-0.1,0.3-0.2c0.1-0.1,0.3-0.2,0.4-0.4
		c0.2-0.1,0.3-0.2,0.4-0.3c0.3-0.3,0.6-0.5,0.8-0.6c0.1-0.1,0.3-0.2,0.7-0.3c-0.2,0-0.1,0,0.2-0.1c0.3-0.2,0.5-0.3,0.8-0.4
		c0.2-0.2,0.4-0.3,0.6-0.4c0.1-0.1,0.3-0.3,0.6-0.5C330.1,228.4,330.2,228.4,330.5,228.4L330.5,228.4z M320.5,232.4
		c0,0.1,0.1,0.2,0.2,0.3s0.2,0.2,0.2,0.3c0.1,0.1,0.2,0.3,0.3,0.6c0.1,0.1,0.1,0.2,0.1,0.4c0.1,0.3,0.1,0.5,0.2,0.8l0.7-0.6l0.1-0.4
		c0.1-0.3,0.2-0.5,0.3-0.7c0.1-0.2,0.2-0.4,0.3-0.7l-0.7,0.2l-0.2-0.1c-0.1-0.1-0.3-0.2-0.6-0.2c-0.2-0.1-0.5-0.2-0.9-0.3V232.4z
		 M330.9,229.7c-0.2-0.1-0.4-0.1-0.4-0.1c-0.1,0-0.2,0.1-0.5,0.3s-0.6,0.6-0.9,1.2l0.3,0.2l0.1,0.2c0.1,0.1,0.1,0.2,0.3,0.4
		c-0.1-0.2-0.1-0.1,0.2,0.4l-0.1,0.1c-0.1-0.1-0.2,0.2-0.4,0.9l0.7-0.4l0.1-0.3c0.1-0.2,0.2-0.4,0.3-0.6c0.1-0.2,0.2-0.4,0.3-0.6
		c0.1-0.1,0.1-0.2,0.1-0.4c0-0.1,0-0.2,0.1-0.3c0.1-0.3,0.2-0.6,0.4-0.9L330.9,229.7z"/>
</g>
<g>
	<ellipse class="st2" cx="247.7" cy="224" rx="157" ry="45.7"/>
</g>
<g>
	<g>
		<g>
			<path class="st3" d="M395.3,189.5c0,0,0.2-0.3,0.6-0.8"/>
			<path class="st4" d="M396.9,187.1c8.1-12.3,41.1-66.7,5.7-83.1c-18.6-8.2-18.9,15.1-10.7,16.5c13.3,2,36.8-29.5,63.8-84.5"/>
			<path class="st3" d="M456.2,35.2c0.1-0.3,0.3-0.6,0.4-0.9"/>
		</g>
	</g>
	<polygon class="st5" points="452.6,32.8 460.2,36.7 459.9,28.3 	"/>
</g>
</svg>
