<?xml version="1.0" encoding="utf-8"?>
<!-- Generator: Adobe Illustrator 22.0.0, SVG Export Plug-In . SVG Version: 6.00 Build 0)  -->
<svg version="1.1" id="图层_1" xmlns="http://www.w3.org/2000/svg" xmlns:xlink="http://www.w3.org/1999/xlink" x="0px" y="0px"
	 viewBox="0 0 64 64" style="enable-background:new 0 0 64 64;" xml:space="preserve">
<style type="text/css">
	.st0{fill:#666666;}
	.st1{fill:#FF8C49;}
</style>
<g>
	<path class="st0" d="M49.5,51.9c-0.6,0.9-1.6,1.6-2.8,1.6H12.8c-1.8,0-3.2-1.5-3.2-3.2V16.4c0-1.2,0.7-2.3,1.6-2.8V9.9
		c0-0.1,0-0.2,0-0.2c-2.8,0.1-5.1,2.4-5.1,5.2v36.7c0,2.9,2.4,5.3,5.2,5.3h36.7c2.8,0,5.1-2.2,5.2-5c-0.1,0-0.1,0-0.2,0
		C53.2,51.9,49.5,51.9,49.5,51.9z"/>
	<path class="st1" d="M57.3,7.5c-0.3-0.3-0.7-0.4-1.2-0.4H37.8c-0.9,0-1.7,0.7-1.7,1.6c0,0.5,0.1,0.9,0.5,1.3
		c0.3,0.4,0.8,0.6,1.3,0.6h14.6c0,0,0.1,0,0.1,0.1c0,0,0,0.1,0,0.1L31.4,31.8c-0.3,0.3-0.5,0.8-0.5,1.2c0,0.5,0.2,0.9,0.5,1.2
		c0.3,0.3,0.8,0.5,1.2,0.5c0.5,0,0.9-0.2,1.2-0.5l20.4-20.4l0,0h0c0.1,0,0.1,0.1,0.1,0.1v13.2c0,0.9,0.7,1.7,1.6,1.7
		c0,0,0.1,0,0.1,0c0.9,0,1.7-0.8,1.7-1.8V8.8C57.8,8.3,57.6,7.8,57.3,7.5z"/>
	<path class="st0" d="M56.4,36.5h-0.2c-0.8,0-1.5,0.7-1.5,1.5v4.6c0,1.1-0.6,2.1-1.5,2.6c-0.4,0.2-0.9,0.4-1.4,0.4H21
		c-1.6,0-2.9-1.3-2.9-2.9V13.1c0-0.6,0.2-1.1,0.4-1.5c0.5-0.9,1.5-1.4,2.5-1.4h4.6c0.8,0,1.5-0.7,1.5-1.5V8.5c0-0.8-0.7-1.5-1.5-1.5
		h-5.9c-2.6,0-4.6,2-4.8,4.6c0,0.1,0,0.1,0,0.2v32c0,2.6,2.1,4.8,4.8,4.8h33.4c0.1,0,0.1,0,0.2,0c2.6-0.1,4.6-2.2,4.6-4.8V38
		C57.8,37.2,57.2,36.5,56.4,36.5z"/>
</g>
</svg>
